<svg width="32" height="32" viewBox="0 0 32 32" fill="none" xmlns="http://www.w3.org/2000/svg">
<path fill-rule="evenodd" clip-rule="evenodd" d="M0.800049 16.3482L0.801593 16.1879L0.804777 16.0275L0.809609 15.8671L0.816081 15.7067L0.824209 15.5463L0.833977 15.3859L0.845401 15.2256L0.858465 15.0653L0.873185 14.905L0.889553 14.7448L0.907569 14.5848L0.927225 14.4248L0.948537 14.265L0.971497 14.1053L0.996097 13.9458L1.02234 13.7865L1.05024 13.6273L1.07977 13.4684L1.11094 13.3097L1.14376 13.1512L1.17822 12.993L1.2143 12.835L1.25202 12.6774L1.29137 12.5201L1.33235 12.3631L1.37495 12.2064L1.41918 12.0501L1.46503 11.8942L1.5125 11.7386L1.56157 11.5835L1.61226 11.4288L1.66455 11.2745L1.71845 11.1206L1.77394 10.9673L1.83102 10.8144L1.8897 10.662L1.94996 10.5102L2.0118 10.3588L2.07522 10.2081L2.1402 10.0578L2.20675 9.90816L2.27486 9.75912L2.34453 9.61072L2.41574 9.46288L2.4885 9.31568L2.5628 9.1692L2.63863 9.02336L2.71598 8.87816L2.79484 8.73376L2.87522 8.59L2.9571 8.44696L3.04048 8.30472L3.12535 8.1632L3.2117 8.02248L3.29954 7.88256L3.38883 7.74344L3.47959 7.6052L3.57181 7.46768L3.66546 7.33112L3.76056 7.19536L3.85708 7.06048L3.95502 6.92656L4.05437 6.79344L4.15512 6.66136L4.25727 6.53016L4.3608 6.39987L4.4657 6.27059L4.57198 6.14229L4.6796 6.01498L4.78858 5.88866L4.89889 5.76338L5.01052 5.63913L5.12347 5.51592L5.23774 5.39378L5.35329 5.2727L5.47013 5.15272L5.58824 5.03383L5.70762 4.91606L5.82825 4.79941L5.95012 4.6839L6.07322 4.56954L6.19755 4.45634L6.32307 4.34433L6.4498 4.2335L6.57771 4.12386L6.70679 4.01544L6.83703 3.90825L6.96843 3.80229L7.10095 3.69758L7.23461 3.59412L7.36933 3.49194L7.50525 3.39104L7.64221 3.29144L7.78021 3.19314L7.91925 3.09616L8.05941 3.0005L8.20053 2.90618L8.34269 2.81321L8.48589 2.72159L8.63013 2.63135L8.77525 2.54249L8.92141 2.45501L9.06845 2.36894L9.21645 2.28427L9.36541 2.20102L9.51525 2.11921L9.66597 2.03882L9.81757 1.9599L9.97005 1.88242L10.1234 1.80641L10.2776 1.73187L10.4326 1.65882L10.5884 1.58726L10.745 1.5172L10.9024 1.44865L11.0605 1.38162L11.2194 1.31611L11.379 1.25214L11.5393 1.1897L11.7004 1.12882L11.862 1.06948L12.0244 1.01172L12.1875 0.95552L12.3512 0.900896L12.5154 0.847864L12.6803 0.796416L12.8458 0.746568L13.0119 0.698328L13.1784 0.651696L13.3456 0.606672L13.5133 0.563272L13.6815 0.521504L13.8501 0.481376L14.0193 0.442872L14.1889 0.406024L14.3589 0.370816L14.5294 0.337264L14.7003 0.305376L14.8716 0.275144L15.0433 0.246584L15.2152 0.219696L15.3876 0.19448L15.5602 0.170952L15.7332 0.149104L15.9064 0.128944L16.08 0.110464L16.2537 0.093696L16.4277 0.078616L16.602 0.0652321L16.7764 0.0535601L17.7143 0L17.7678 4.51894L17.7984 4.51858L17.928 4.5184L18.0575 4.51949L18.187 4.52185L18.3167 4.52549L18.4463 4.5304L18.576 4.53658L18.7056 4.54404L18.8353 4.55278L18.9649 4.56279L19.0946 4.57409L19.2241 4.58666L19.3536 4.60052L19.483 4.61565L19.6124 4.63206L19.7416 4.64974L19.8707 4.6687L19.9996 4.68895L20.1285 4.71047L20.2572 4.73326L20.3857 4.75734L20.514 4.78268L20.6421 4.8093L20.7701 4.83719L20.8978 4.86635L21.0252 4.89678L21.1525 4.92847L21.2795 4.96144L21.4061 4.99566L21.5325 5.03115L21.6587 5.0679L21.7844 5.1059L21.9099 5.14515L22.035 5.18566L22.1598 5.22742L22.2842 5.27042L22.4082 5.31467L22.5319 5.36015L22.6551 5.40688L22.7779 5.45483L22.9003 5.50402L23.0222 5.55444L23.1437 5.60607L23.2647 5.65893L23.3853 5.713L23.5052 5.76828L23.6248 5.82476L23.7438 5.88245L23.8623 5.94134L23.9802 6.00142L24.0976 6.06268L24.2144 6.12513L24.3306 6.18876L24.4462 6.25356L24.5612 6.31953L24.6756 6.38666L24.7894 6.45496L24.9025 6.5244L25.015 6.59496L25.1268 6.66672L25.2379 6.73952L25.3483 6.81352L25.458 6.88864L25.567 6.9648L25.6753 7.04216L25.7829 7.12056L25.8896 7.20008L25.9956 7.28072L26.1008 7.3624L26.2053 7.4452L26.3089 7.52896L26.4118 7.61384L26.5138 7.69984L26.615 7.7868L26.7154 7.8748L26.8149 7.96384L26.9135 8.05392L27.0112 8.14504L27.1081 8.23712L27.2041 8.33016L27.2992 8.42424L27.3933 8.51928L27.4865 8.61536L27.5788 8.71232L27.6701 8.81024L27.7605 8.90912L27.8499 9.00896L27.9383 9.10968L28.0257 9.21136L28.1121 9.31392L28.1976 9.41736L28.282 9.52176L28.3653 9.62696L28.4477 9.73304L28.5289 9.84L28.6092 9.94784L28.6883 10.0565L28.7664 10.166L28.8433 10.2763L28.9192 10.3874L28.994 10.4993L29.0677 10.612L29.1403 10.7255L29.2116 10.8398L29.282 10.9547L29.3511 11.0705L29.4191 11.187L29.4859 11.3042L29.5516 11.4221L29.616 11.5407L29.6793 11.66L29.7414 11.78L29.8023 11.9006L29.862 12.0219L29.9205 12.1439L29.9777 12.2665L30.0337 12.3897L30.0885 12.5135L30.142 12.6379L30.1943 12.763L30.2453 12.8885L30.2951 13.0146L30.3436 13.1413L30.3908 13.2686L30.4367 13.3962L30.4813 13.5246L30.5247 13.6533L30.5668 13.7826L30.6075 13.9122L30.6469 14.0424L30.685 14.173L30.7218 14.3041L30.7572 14.4356L30.7914 14.5675L30.8241 14.6998L30.8556 14.8325L30.8857 14.9655L30.9144 15.099L30.9419 15.2326L30.9679 15.3668L30.9925 15.5012L31.0159 15.6359L31.0378 15.7709L31.0584 15.9062L31.0776 16.0418L31.0953 16.1775L31.1117 16.3136L31.1268 16.4498L31.1404 16.5863L31.1526 16.723L31.1635 16.8598L31.1729 16.9969L31.1809 17.1341L31.1876 17.2714L31.1929 17.4089L31.1966 17.5464L31.1991 17.6841L31.2 17.8218L31.1996 17.9597L31.1978 18.0976L31.1945 18.2356L31.1899 18.3735L31.1838 18.5115L31.1764 18.6495L31.1674 18.7875L31.1571 18.9255L31.1453 19.0634L31.1321 19.2014L31.1176 19.3392L31.1015 19.4769L31.084 19.6146L31.0653 19.7521L31.0449 19.8895L31.0232 20.0268L31.0001 20.1639L30.9756 20.3009L30.9496 20.4377L30.9223 20.5743L30.8935 20.7107L30.8632 20.8469L30.8316 20.9829L30.7987 21.1186L30.7642 21.254L30.7284 21.3891L30.6912 21.524L30.6525 21.6586L30.6125 21.7928L30.5711 21.9268L30.5282 22.0603L30.484 22.1936L30.4384 22.3264L30.3914 22.4589L30.3431 22.591L30.2933 22.7226L30.2422 22.8538L30.1897 22.9846L30.1359 23.1149L30.0807 23.2447L30.0241 23.3742L29.9662 23.503L29.9069 23.6314L29.8463 23.7592L29.7844 23.8865L29.721 24.0133L29.6564 24.1394L29.5904 24.2651L29.5232 24.3901L29.4546 24.5146L29.3848 24.6383L29.3136 24.7615L29.2411 24.8841L29.1673 25.0059L29.0923 25.1272L29.0159 25.2477L28.9383 25.3675L28.8595 25.4866L28.7793 25.605L28.698 25.7227L28.6153 25.8397L28.5315 25.9558L28.4464 26.0713L28.3601 26.1859L28.2725 26.2998L28.1838 26.4127L28.0939 26.525L28.0028 26.6363L27.9104 26.7468L27.8169 26.8565L27.7223 26.9653L27.6264 27.0732L27.5295 27.1802L27.4314 27.2864L27.3322 27.3916L27.2318 27.4959L27.1304 27.5992L27.0277 27.7016L26.924 27.803L26.8193 27.9035L26.7135 28.003L26.6066 28.1015L26.4986 28.199L26.3896 28.2954L26.2796 28.3909L26.1684 28.4854L26.0564 28.5787L25.9433 28.671L25.8292 28.7622L25.7141 28.8524L25.598 28.9414L25.4809 29.0294L25.3629 29.1162L25.244 29.202L25.1241 29.2866L25.0033 29.3701L24.8817 29.4524L24.7591 29.5335L24.6356 29.6135L24.5112 29.6924L24.386 29.77L24.26 29.8465L24.133 29.9217L24.0052 29.9958L23.8768 30.0686L23.7473 30.1401L23.6172 30.2105L23.4863 30.2795L23.3546 30.3474L23.2221 30.414L23.0889 30.4793L22.955 30.5433L22.8204 30.6061L22.685 30.6675L22.549 30.7277L22.4123 30.7865L22.2749 30.844L22.1369 30.9002L21.9983 30.9551L21.859 31.0086L21.7191 31.0609L21.5786 31.1117L21.4375 31.1612L21.2959 31.2093L21.1537 31.2561L21.0109 31.3014L20.8676 31.3454L20.7239 31.3881L20.5796 31.4293L20.4349 31.4691L20.2896 31.5076L20.1439 31.5446L19.9978 31.5802L19.8512 31.6144L19.7042 31.6471L19.5568 31.6785L19.4091 31.7084L19.2609 31.7369L19.1124 31.7639L18.9636 31.7894L18.8144 31.8136L18.665 31.8363L18.5152 31.8575L18.3652 31.8773L18.2148 31.8956L18.0642 31.9124L17.9134 31.9278L17.7624 31.9417L17.6112 31.9541L17.4597 31.965L17.3081 31.9745L17.1563 31.9825L17.0044 31.989L16.8524 31.9939L16.7001 31.9974L16.5479 31.9994L16.3955 32L16.2431 31.999L16.0906 31.9966L15.938 31.9926L15.7855 31.9871L15.6329 31.9802L15.4804 31.9718L15.3279 31.9618L15.1753 31.9503L15.0229 31.9374L14.8705 31.9229L14.7182 31.907L14.566 31.8895L14.414 31.8706L14.262 31.8501L14.1102 31.8281L13.9585 31.8046L13.8071 31.7797L13.6558 31.7533L13.5047 31.7253L13.3539 31.6958L13.2032 31.665L13.0529 31.6325L12.9028 31.5986L12.753 31.5632L12.6035 31.5263L12.4543 31.4879L12.3054 31.4481L12.1569 31.4068L12.0088 31.364L11.8609 31.3198L11.7136 31.274L11.5666 31.2268L11.42 31.1782L11.2739 31.128L11.1282 31.0764L10.983 31.0234L10.8383 30.969L10.694 30.913L10.5504 30.8557L10.4072 30.7969L10.2645 30.7366L10.1224 30.675L9.98093 30.612L9.83997 30.5475L9.69965 30.4816L9.55997 30.4143L9.42093 30.3456L9.28245 30.2755L9.14469 30.2041L9.00765 30.1312L8.87117 30.057L8.73549 29.9814L8.60053 29.9045L8.46629 29.8262L8.33277 29.7465L8.20005 29.6655L8.06805 29.5831L7.93685 29.4995L7.80653 29.4145L7.67693 29.3282L7.54821 29.2406L7.42037 29.1517L7.29333 29.0615L7.16718 28.97L7.04191 28.8773L6.91754 28.7832L6.7941 28.6879L6.67157 28.5914L6.54998 28.4936L6.42935 28.3946L6.30967 28.2944L6.19098 28.193L6.07327 28.0903L5.95658 27.9864L5.8409 27.8814L5.72625 27.7752L5.61263 27.6678L5.50008 27.5593L5.38859 27.4495L5.27818 27.3387L5.16886 27.2268L5.06064 27.1137L4.95354 26.9995L4.84756 26.8842L4.74273 26.7678L4.63904 26.6504L4.53651 26.5319L4.43516 26.4123L4.33499 26.2918L4.23602 26.1701L4.13826 26.0474L4.04171 25.9238L3.94639 25.7991L3.85231 25.6734L3.75948 25.5468L3.66791 25.4192L3.57761 25.2906L3.48859 25.1612L3.40086 25.0308L3.31444 24.8994L3.22933 24.7673L3.14553 24.6342L3.06307 24.5002L2.98194 24.3654L2.90217 24.2296L2.82376 24.0931L2.74671 23.9558L2.67104 23.8176L2.59676 23.6786L2.52386 23.5388L2.45238 23.3983L2.3823 23.257L2.31366 23.115L2.24643 22.9722L2.18064 22.8288L2.1163 22.6846L2.0534 22.5398L1.99197 22.3942L1.93201 22.248L1.87351 22.1011L1.8165 21.9536L1.76099 21.8055L1.70697 21.6568L1.65445 21.5075L1.60343 21.3577L1.55394 21.2072L1.50597 21.0562L1.45952 20.9047L1.41462 20.7527L1.37125 20.6002L1.32942 20.4471L1.28915 20.2937L1.25044 20.1398L1.21329 19.9854L1.17771 19.8306L1.1437 19.6753L1.11127 19.5197L1.08042 19.3637L1.05116 19.2074L1.02349 19.0506L0.997417 18.8936L0.972937 18.7362L0.950065 18.5786L0.928801 18.4206L0.909153 18.2623L0.891113 18.1038L0.874689 17.9451L0.859889 17.7862L0.846713 17.627L0.835161 17.4677L0.825241 17.3082L0.816953 17.1485L0.810297 16.9886L0.805273 16.8287L0.801889 16.6686L0.800153 16.5085L0.800049 16.3482ZM16.3025 4.61359L16.266 1.53343L16.2314 1.53678L16.0724 1.5537L15.9137 1.57217L15.7552 1.5922L15.5972 1.61372L15.4395 1.63681L15.2819 1.66144L15.1248 1.68758L14.9678 1.71529L14.8116 1.74443L14.6552 1.77521L14.5 1.80737L14.3444 1.84115L14.1897 1.87637L14.0352 1.91315L13.8813 1.95134L13.7279 1.99107L13.5748 2.03228L13.4223 2.07498L13.2704 2.1191L13.1188 2.16475L12.968 2.21182L12.8176 2.26038L12.668 2.31028L12.5187 2.36176L12.3701 2.41462L12.2223 2.46887L12.0748 2.52461L11.9282 2.5817L11.7824 2.64018L11.6369 2.70015L11.4922 2.76149L11.3482 2.82422L11.205 2.88828L11.0625 2.95373L10.9208 3.0205L10.7796 3.08874L10.6395 3.15822L10.5 3.22906L10.3614 3.30124L10.2236 3.37475L10.0867 3.44952L9.95037 3.52567L9.81493 3.60314L9.68069 3.68172L9.54685 3.76183L9.41429 3.84301L9.28261 3.92545L9.15157 4.00924L9.02157 4.09426L8.89253 4.18051L8.76469 4.26778L8.63733 4.3566L8.51125 4.44637L8.38613 4.53738L8.26189 4.62963L8.13877 4.72298L8.01677 4.81746L7.89549 4.91326L7.77557 5.00997L7.65653 5.10795L7.53861 5.207L7.42173 5.3072L7.30605 5.40836L7.19123 5.5108L7.07773 5.61415L6.96519 5.7187L6.85396 5.82412L6.74374 5.93069L6.63475 6.03822L6.52687 6.14681L6.42004 6.25652L6.31461 6.36698L6.21036 6.4784L6.10704 6.59112L6.00515 6.70456L5.90451 6.8188L5.8049 6.93424L5.70675 7.0504L5.60967 7.1676L5.51391 7.2856L5.41939 7.40456L5.32611 7.52432L5.23421 7.64488L5.1435 7.76632L5.05405 7.88872L4.96603 8.01168L4.87919 8.13568L4.79374 8.26032L4.7096 8.38576L4.62673 8.512L4.54526 8.63896L4.46512 8.76656L4.38633 8.89496L4.30894 9.024L4.23283 9.15384L4.15809 9.2844L4.08482 9.41544L4.01286 9.5472L3.94227 9.67968L3.87312 9.81272L3.80533 9.9464L3.73899 10.0806L3.67404 10.2154L3.61052 10.3507L3.54838 10.4867L3.48772 10.6231L3.42843 10.7602L3.37059 10.8977L3.31423 11.0356L3.25928 11.1741L3.20577 11.313L3.15373 11.4524L3.10313 11.5922L3.05402 11.7324L3.00634 11.8731L2.96013 12.0142L2.9154 12.1556L2.87215 12.2973L2.83034 12.4395L2.79005 12.5819L2.75122 12.7247L2.71387 12.8678L2.67801 13.0112L2.64364 13.1548L2.61076 13.2987L2.57937 13.4429L2.54947 13.5873L2.52107 13.7318L2.49416 13.8766L2.46875 14.0216L2.44484 14.1668L2.42243 14.3121L2.40152 14.4575L2.38211 14.6031L2.3642 14.7488L2.34779 14.8946L2.33289 15.0405L2.31949 15.1864L2.30758 15.3323L2.29718 15.4784L2.28829 15.6245L2.28089 15.7705L2.27499 15.9166L2.27059 16.0626L2.2677 16.2086L2.26629 16.3545L2.26638 16.5004L2.26797 16.6462L2.27105 16.7919L2.27562 16.9375L2.28167 17.083L2.28922 17.2283L2.29825 17.3734L2.30876 17.5185L2.32075 17.6633L2.33422 17.8079L2.34916 17.9524L2.36558 18.0966L2.38346 18.2406L2.4028 18.3842L2.42361 18.5277L2.44588 18.6709L2.46959 18.8137L2.49477 18.9562L2.52138 19.0985L2.54944 19.2403L2.57894 19.3819L2.60986 19.523L2.64222 19.6638L2.67601 19.8042L2.71121 19.9442L2.74783 20.0838L2.78585 20.2229L2.82529 20.3616L2.86612 20.4998L2.90834 20.6376L2.95196 20.7749L2.99694 20.9116L3.04331 21.0478L3.09106 21.1835L3.14016 21.3187L3.19061 21.4533L3.24244 21.5874L3.29558 21.7208L3.35007 21.8537L3.4059 21.9859L3.46305 22.1175L3.52152 22.2486L3.5813 22.379L3.64238 22.5086L3.70474 22.6377L3.76841 22.766L3.83334 22.8937L3.89956 23.0206L3.96703 23.1469L4.03577 23.2724L4.10575 23.3971L4.17696 23.5211L4.24941 23.6444L4.32309 23.7668L4.39794 23.8885L4.47406 24.0094L4.55133 24.1294L4.62981 24.2486L4.70946 24.367L4.79027 24.4846L4.87224 24.6013L4.95538 24.7171L5.03964 24.8321L5.12506 24.9462L5.21155 25.0593L5.29921 25.1715L5.38791 25.2828L5.47774 25.3932L5.56867 25.5027L5.66061 25.6112L5.75365 25.7187L5.84772 25.8253L5.94286 25.9309L6.03901 26.0354L6.13615 26.139L6.23433 26.2416L6.33349 26.3432L6.43366 26.4438L6.53478 26.5432L6.6369 26.6417L6.73992 26.739L6.8439 26.8354L6.94883 26.9307L7.05466 27.0249L7.16135 27.1179L7.26901 27.2099L7.37757 27.3008L7.48685 27.3906L7.59717 27.4793L7.70821 27.5667L7.82013 27.6531L7.93285 27.7384L8.04645 27.8225L8.16077 27.9054L8.27589 27.9871L8.39173 28.0677L8.50845 28.1471L8.62581 28.2253L8.74405 28.3023L8.86285 28.3782L8.98245 28.4527L9.10277 28.5262L9.22365 28.5983L9.34533 28.6693L9.46757 28.739L9.59053 28.8074L9.71405 28.8746L9.83829 28.9406L9.96301 29.0054L10.0884 29.0689L10.2144 29.131L10.3409 29.192L10.468 29.2517L10.5956 29.3101L10.7236 29.3671L10.8524 29.423L10.9815 29.4774L11.1112 29.5307L11.2412 29.5826L11.3718 29.6332L11.5028 29.6826L11.6342 29.7306L11.766 29.7772L11.8984 29.8226L12.031 29.8666L12.164 29.9094L12.2973 29.9507L12.4312 29.9908L12.5652 30.0295L12.6996 30.0669L12.8343 30.103L12.9692 30.1377L13.1045 30.171L13.24 30.203L13.3758 30.2338L13.5118 30.263L13.648 30.291L13.7844 30.3177L13.9211 30.343L14.0579 30.3669L14.1948 30.3894L14.332 30.4106L14.4692 30.4305L14.6067 30.449L14.7441 30.4662L14.8817 30.4819L15.0194 30.4963L15.1572 30.5094L15.295 30.5211L15.4328 30.5315L15.5707 30.5405L15.7086 30.5482L15.8464 30.5544L15.9843 30.5594L16.1221 30.563L16.26 30.5651L16.3976 30.566L16.5353 30.5655L16.6729 30.5637L16.8104 30.5606L16.9477 30.556L17.085 30.5502L17.2221 30.543L17.359 30.5344L17.4958 30.5246L17.6325 30.5134L17.7689 30.5008L17.905 30.4869L18.041 30.4717L18.1767 30.4552L18.3122 30.4374L18.4474 30.4182L18.5824 30.3977L18.717 30.3759L18.8514 30.3528L18.9855 30.3284L19.1192 30.3027L19.2525 30.2758L19.3856 30.2474L19.5182 30.2179L19.6504 30.187L19.7824 30.1549L19.9138 30.1215L20.0448 30.0868L20.1754 30.0509L20.3056 30.0137L20.4353 29.9752L20.5646 29.9355L20.6933 29.8946L20.8216 29.8524L20.9494 29.809L21.0765 29.7644L21.2033 29.7185L21.3295 29.6714L21.4551 29.6231L21.5801 29.5737L21.7045 29.523L21.8284 29.4711L21.9517 29.4181L22.0743 29.3638L22.1962 29.3085L22.3176 29.2519L22.4384 29.1942L22.5584 29.1354L22.6778 29.0753L22.7964 29.0142L22.9144 28.9519L23.0318 28.8885L23.1483 28.824L23.2641 28.7584L23.3792 28.6918L23.4937 28.6239L23.6071 28.5551L23.72 28.4851L23.832 28.4142L23.9432 28.3421L24.0536 28.269L24.1633 28.1947L24.272 28.1197L24.3799 28.0434L24.487 27.9662L24.5933 27.8881L24.6987 27.8088L24.8031 27.7287L24.9068 27.6474L25.0095 27.5654L25.1112 27.4823L25.2123 27.3982L25.3123 27.3132L25.4112 27.2274L25.5094 27.1405L25.6065 27.0528L25.7028 26.9642L25.798 26.8746L25.8922 26.7843L25.9856 26.693L26.0779 26.6008L26.1692 26.5078L26.2595 26.414L26.3487 26.3194L26.4368 26.2241L26.5242 26.1276L26.6103 26.0306L26.6955 25.9327L26.7795 25.8342L26.8625 25.7347L26.9444 25.6346L27.0253 25.5338L27.1051 25.4321L27.1837 25.3298L27.2614 25.2267L27.3378 25.123L27.4132 25.0186L27.4876 24.9134L27.5606 24.8078L27.6327 24.7013L27.7035 24.5943L27.7732 24.4866L27.842 24.3782L27.9093 24.2694L27.9756 24.1599L28.0408 24.0496L28.1046 23.9391L28.1674 23.8278L28.2291 23.716L28.2894 23.6038L28.3487 23.4909L28.4068 23.3774L28.4635 23.2639L28.5192 23.1494L28.5736 23.0346L28.6269 22.9194L28.6788 22.8037L28.7296 22.6875L28.7792 22.571L28.8276 22.4539L28.8747 22.3365L28.9205 22.219L28.9652 22.1006L29.0085 21.9822L29.0508 21.8632L29.0917 21.744L29.1314 21.6244L29.1697 21.5048L29.207 21.3843L29.2428 21.264L29.2775 21.1433L29.3109 21.0224L29.3431 20.901L29.3739 20.7797L29.4036 20.6579L29.4319 20.5359L29.459 20.4138L29.4848 20.2914L29.5093 20.1691L29.5326 20.0462L29.5546 19.9237L29.5753 19.8006L29.5948 19.6775L29.6129 19.5544L29.6299 19.431L29.6455 19.3078L29.6599 19.1841L29.6729 19.0608L29.6848 18.9371L29.6952 18.8137L29.7045 18.6898L29.7125 18.5665L29.7192 18.4427L29.7247 18.3189L29.7288 18.1954L29.7318 18.0721L29.7334 17.9483L29.7338 17.8248L29.7329 17.7014L29.7308 17.5782L29.7273 17.4549L29.7226 17.3321L29.7167 17.2088L29.7095 17.0861L29.701 16.9634L29.6913 16.841L29.6804 16.7185L29.6682 16.5965L29.6548 16.4744L29.64 16.3527L29.6241 16.2311L29.607 16.1099L29.5885 15.9886L29.5689 15.8679L29.5481 15.7476L29.5261 15.6272L29.5027 15.5072L29.4782 15.3877L29.4524 15.2681L29.4256 15.1494L29.3974 15.0305L29.3682 14.9124L29.3376 14.7942L29.3059 14.6768L29.273 14.5596L29.2389 14.4426L29.2037 14.3264L29.1673 14.2106L29.1296 14.0948L29.091 13.9799L29.051 13.8651L29.01 13.751L28.9678 13.6372L28.9245 13.5242L28.88 13.4113L28.8344 13.299L28.7877 13.1875L28.74 13.0765L28.6908 12.9656L28.641 12.8558L28.5897 12.746L28.5376 12.6373L28.4843 12.529L28.4298 12.421L28.3744 12.314L28.3179 12.2074L28.2602 12.1014L28.2018 11.9963L28.142 11.8915L28.0814 11.7876L28.0196 11.6842L27.957 11.5818L27.8931 11.4796L27.8284 11.3784L27.7626 11.2777L27.6959 11.1778L27.6283 11.0789L27.5595 10.9803L27.4898 10.8826L27.4192 10.7857L27.3477 10.6896L27.2752 10.5941L27.2017 10.4995L27.1274 10.4056L27.0521 10.3126L26.976 10.2203L26.8988 10.1288L26.8209 10.0382L26.7421 9.94832L26.6624 9.85936L26.5819 9.7712L26.5003 9.68376L26.4183 9.59752L26.3349 9.51176L26.2512 9.4272L26.1664 9.34328L26.081 9.2604L25.9944 9.17816L25.9076 9.0972L25.8196 9.01688L25.7309 8.93752L25.6416 8.8592L25.5516 8.78176L25.4604 8.70504L25.3688 8.62944L25.2766 8.5548L25.1836 8.48112L25.0898 8.40832L24.9956 8.33672L24.9003 8.26568L24.8047 8.196L24.7083 8.1272L24.6112 8.05928L24.5136 7.99248L24.4151 7.92648L24.3165 7.86184L24.2168 7.79792L24.1168 7.73512L24.0161 7.67328L23.9148 7.61248L23.8131 7.5528L23.7109 7.49424L23.6078 7.4364L23.5047 7.37992L23.4007 7.32432L23.2963 7.26984L23.1915 7.21648L23.0861 7.16408L22.9802 7.11272L22.874 7.06256L22.7672 7.01336L22.6601 6.96536L22.5525 6.91832L22.4411 6.87096L22.3363 6.82768L22.2272 6.78384L22.1184 6.74136L22.0086 6.69968L21.8988 6.65936L21.7886 6.62L21.6781 6.58184L21.5672 6.54464L21.4561 6.50872L21.3446 6.47384L21.2328 6.44008L21.121 6.40752L21.0087 6.37597L20.896 6.3455L20.7834 6.31628L20.6706 6.28817L20.5571 6.26109L20.444 6.23526L20.3303 6.21046L20.2166 6.18686L20.1025 6.16433L19.9886 6.14298L19.8744 6.12274L19.7602 6.10368L19.6455 6.08568L19.5311 6.06887L19.4164 6.05318L19.3016 6.03861L19.1868 6.02518L19.0721 6.01291L18.9572 6.00176L18.8422 5.99174L18.7272 5.98286L18.612 5.9751L18.4972 5.96849L18.3824 5.96301L18.2671 5.95865L18.1524 5.95543L18.0376 5.95334L17.9228 5.95238L17.8078 5.95254L17.7848 5.9528L17.821 9.01056L17.8862 9.01024L17.9701 9.01072L18.054 9.012L18.1381 9.01416L18.2221 9.01712L18.3062 9.02096L18.3903 9.0256L18.4744 9.03104L18.5586 9.03736L18.6428 9.04448L18.7269 9.05248L18.811 9.06128L18.8952 9.07096L18.9792 9.08144L19.0632 9.09272L19.1472 9.10496L19.2312 9.11792L19.315 9.13176L19.3988 9.14648L19.4825 9.162L19.5661 9.1784L19.6496 9.1956L19.7331 9.2136L19.8164 9.23248L19.8995 9.25224L19.9825 9.2728L20.0653 9.29416L20.148 9.3164L20.2306 9.33944L20.313 9.36336L20.3952 9.38808L20.4772 9.4136L20.559 9.44L20.6406 9.4672L20.722 9.49528L20.8032 9.52416L20.8841 9.55384L20.9648 9.58432L21.0452 9.61568L21.1254 9.64784L21.2053 9.6808L21.2849 9.71464L21.3643 9.7492L21.4433 9.78464L21.522 9.8208L21.6004 9.85784L21.6786 9.89568L21.7564 9.93432L21.8338 9.97376L21.9109 10.014L21.9876 10.055L22.064 10.0968L22.14 10.1394L22.2157 10.1827L22.2909 10.2269L22.3658 10.2718L22.4402 10.3175L22.5142 10.364L22.5878 10.4113L22.661 10.4593L22.7337 10.508L22.806 10.5575L22.8779 10.6078L22.9492 10.6588L23.0201 10.7106L23.0905 10.7631L23.1605 10.8163L23.2299 10.8703L23.2988 10.925L23.3672 10.9804L23.4352 11.0366L23.5025 11.0934L23.5694 11.151L23.6357 11.2092L23.7015 11.2682L23.7667 11.3278L23.8312 11.3882L23.8953 11.4492L23.9588 11.5109L24.0217 11.5733L24.084 11.6363L24.1456 11.7001L24.2068 11.7644L24.2672 11.8294L24.327 11.8951L24.3862 11.9614L24.4448 12.0283L24.5027 12.0959L24.56 12.1641L24.6166 12.2329L24.6725 12.3023L24.7278 12.3723L24.7824 12.443L24.8363 12.5142L24.8895 12.586L24.942 12.6583L24.9938 12.7313L25.0448 12.8048L25.0952 12.8789L25.1448 12.9535L25.1937 13.0286L25.2419 13.1044L25.2893 13.1806L25.336 13.2574L25.382 13.3346L25.4271 13.4125L25.4715 13.4907L25.5151 13.5695L25.5579 13.6488L25.6 13.7286L25.6412 13.8088L25.6817 13.8895L25.7213 13.9707L25.7602 14.0523L25.7982 14.1343L25.8354 14.2169L25.8718 14.2998L25.9074 14.3831L25.9421 14.4669L25.976 14.551L26.0091 14.6356L26.0412 14.7205L26.0726 14.8058L26.1031 14.8915L26.1328 14.9776L26.1616 15.064L26.1894 15.1508L26.2164 15.2378L26.2426 15.3253L26.2679 15.413L26.2923 15.5011L26.3157 15.5895L26.3384 15.6782L26.3601 15.7671L26.3808 15.8563L26.4008 15.9458L26.4197 16.0356L26.4378 16.1256L26.4549 16.2158L26.4712 16.3064L26.4865 16.3971L26.5009 16.488L26.5144 16.5792L26.5269 16.6705L26.5385 16.762L26.5492 16.8538L26.5589 16.9457L26.5677 17.0377L26.5757 17.1299L26.5825 17.2222L26.5885 17.3147L26.5935 17.4073L26.5976 17.5L26.6007 17.5929L26.6028 17.6858L26.604 17.7788L26.6043 17.8719L26.6036 17.965L26.6019 18.0582L26.5992 18.1515L26.5956 18.2449L26.5911 18.3382L26.5856 18.4315L26.5791 18.525L26.5716 18.6183L26.5632 18.7117L26.5538 18.805L26.5434 18.8983L26.5321 18.9917L26.5198 19.0849L26.5065 19.1781L26.4923 19.2712L26.4771 19.3642L26.4609 19.4572L26.4437 19.5501L26.4256 19.6429L26.4065 19.7355L26.3864 19.8281L26.3655 19.9205L26.3435 20.0127L26.3205 20.1048L26.2966 20.1968L26.2717 20.2886L26.2459 20.3802L26.2191 20.4715L26.1913 20.5627L26.1626 20.6538L26.1328 20.7446L26.1022 20.835L26.0706 20.9254L26.0381 21.0154L26.0046 21.1052L25.9701 21.1947L25.9348 21.284L25.8985 21.373L25.8612 21.4617L25.8229 21.55L25.7838 21.6381L25.7437 21.7258L25.7027 21.8132L25.6608 21.9002L25.6179 21.987L25.574 22.0733L25.5293 22.1593L25.4837 22.2448L25.4372 22.33L25.3897 22.4148L25.3414 22.4992L25.2921 22.5831L25.242 22.6667L25.1909 22.7498L25.139 22.8325L25.0861 22.9146L25.0324 22.9964L24.9778 23.0776L24.9224 23.1584L24.866 23.2387L24.8089 23.3185L24.7508 23.3978L24.6919 23.4766L24.6321 23.5548L24.5715 23.6325L24.51 23.7096L24.4477 23.7862L24.3846 23.8622L24.3207 23.9378L24.2559 24.0126L24.1903 24.087L24.1239 24.1606L24.0567 24.2338L23.9887 24.3062L23.92 24.3782L23.8504 24.4494L23.7801 24.52L23.7088 24.5899L23.637 24.6593L23.5643 24.7279L23.4909 24.7958L23.4168 24.8632L23.3418 24.9298L23.2662 24.9957L23.1898 25.061L23.1128 25.1254L23.0349 25.1893L22.9564 25.2523L22.8772 25.3146L22.7972 25.3762L22.7167 25.4371L22.6354 25.4972L22.5534 25.5566L22.4708 25.6152L22.3876 25.673L22.3036 25.73L22.219 25.7862L22.1338 25.8417L22.048 25.8963L21.9616 25.9502L21.8744 26.0031L21.7868 26.0554L21.6985 26.1067L21.6097 26.1572L21.5203 26.2069L21.4303 26.2558L21.3397 26.3038L21.2486 26.3509L21.1569 26.3971L21.0648 26.4425L20.972 26.487L20.8788 26.5306L20.785 26.5734L20.6908 26.6152L20.5961 26.6562L20.5008 26.6962L20.4051 26.7353L20.3089 26.7735L20.2123 26.8108L20.1152 26.8472L20.0177 26.8826L19.9198 26.9171L19.8214 26.9506L19.7227 26.9833L19.6235 27.0149L19.524 27.0456L19.424 27.0754L19.3237 27.1041L19.2231 27.1319L19.122 27.1587L19.0207 27.1846L18.919 27.2094L18.817 27.2334L18.7146 27.2562L18.612 27.2782L18.5091 27.299L18.4059 27.319L18.3025 27.3379L18.1987 27.3558L18.0947 27.3727L17.9905 27.3886L17.886 27.4034L17.7813 27.4173L17.6765 27.4302L17.5714 27.4419L17.4661 27.4527L17.3607 27.4625L17.2551 27.4712L17.1493 27.4789L17.0434 27.4855L16.9373 27.4911L16.8312 27.4957L16.7248 27.4992L16.6184 27.5017L16.512 27.5031L16.4053 27.5035L16.2987 27.5029L16.192 27.5011L16.0852 27.4984L15.9784 27.4946L15.8716 27.4897L15.7648 27.4838L15.658 27.4768L15.5511 27.4688L15.4443 27.4597L15.3375 27.4495L15.2307 27.4383L15.124 27.4261L15.0173 27.4128L14.9107 27.3984L14.8042 27.383L14.6978 27.3665L14.5915 27.349L14.4852 27.3303L14.3792 27.3107L14.2732 27.29L14.1675 27.2682L14.0618 27.2454L13.9564 27.2215L13.8511 27.1966L13.746 27.1706L13.6411 27.1435L13.5364 27.1154L13.4319 27.0863L13.3277 27.0562L13.2237 27.025L13.12 26.9927L13.0165 26.9594L12.9134 26.925L12.8104 26.8897L12.7079 26.8533L12.6056 26.8158L12.5036 26.7774L12.402 26.7378L12.3008 26.6974L12.1998 26.6558L12.0992 26.6132L11.9991 26.5697L11.8993 26.525L11.7999 26.4794L11.7009 26.4329L11.6024 26.3853L11.5042 26.3366L11.4064 26.287L11.3092 26.2365L11.2124 26.1849L11.1161 26.1323L11.0203 26.0788L10.9249 26.0242L10.83 25.9688L10.7357 25.9123L10.6419 25.8549L10.5486 25.7966L10.4559 25.7372L10.3637 25.677L10.2721 25.6157L10.1811 25.5535L10.0906 25.4905L10.0008 25.4265L9.91149 25.3615L9.82285 25.2957L9.73477 25.2289L9.64741 25.1612L9.56069 25.0926L9.47461 25.0231L9.38917 24.9528L9.30437 24.8815L9.22029 24.8094L9.13693 24.7364L9.05421 24.6626L8.97221 24.5878L8.89101 24.5123L8.81045 24.4359L8.73061 24.3586L8.65157 24.2806L8.57333 24.2017L8.49581 24.1219L8.41901 24.0414L8.34301 23.9601L8.26789 23.878L8.19349 23.795L8.11989 23.7114L8.04717 23.6269L7.97517 23.5417L7.90413 23.4557L7.83381 23.3689L7.76445 23.2814L7.69589 23.1932L7.62821 23.1042L7.56141 23.0146L7.49541 22.9242L7.43037 22.8331L7.36629 22.7414L7.30301 22.6489L7.24069 22.5558L7.1793 22.462L7.11882 22.3675L7.05928 22.2724L7.00069 22.1766L6.94304 22.0802L6.88635 21.9833L6.83063 21.8856L6.77587 21.7874L6.72209 21.6886L6.6693 21.5892L6.61749 21.4892L6.56668 21.3886L6.51688 21.2875L6.46809 21.1858L6.42031 21.0837L6.37356 20.9809L6.32783 20.8777L6.28315 20.7739L6.2395 20.6696L6.19689 20.5649L6.15535 20.4597L6.11485 20.3539L6.07542 20.2478L6.03705 20.1412L5.99976 20.0341L5.96355 19.9266L5.92842 19.8187L5.89438 19.7104L5.86144 19.6018L5.82959 19.4926L5.79885 19.3832L5.76921 19.2734L5.74069 19.1631L5.71328 19.0526L5.68699 18.9418L5.66182 18.8306L5.63778 18.719L5.61488 18.6073L5.59311 18.4952L5.57248 18.3828L5.55299 18.2702L5.53466 18.1573L5.51747 18.0442L5.50142 17.9308L5.48655 17.8172L5.47283 17.7034L5.46027 17.5894L5.44886 17.4752L5.43863 17.3608L5.42958 17.2462L5.42169 17.1316L5.41497 17.0167L5.40943 16.9018L5.40507 16.7867L5.4019 16.6715L5.3999 16.5562L5.39908 16.4408L5.39946 16.3254L5.40101 16.2098L5.40376 16.0943L5.40769 15.9787L5.41282 15.863L5.41914 15.7474L5.42664 15.6318L5.43534 15.5162L5.44523 15.4005L5.45632 15.285L5.46861 15.1694L5.48208 15.0539L5.49675 14.9385L5.51262 14.8231L5.52967 14.7078L5.54793 14.5927L5.56737 14.4777L5.58801 14.3628L5.60984 14.248L5.63287 14.1334L5.65707 14.019L5.68248 13.9046L5.70907 13.7906L5.73685 13.6766L5.76581 13.563L5.79596 13.4495L5.82729 13.3362L5.8598 13.2233L5.8935 13.1106L5.92836 12.9981L5.96441 12.8858L6.00163 12.774L6.04001 12.6624L6.07957 12.5511L6.12029 12.4402L6.16217 12.3295L6.20521 12.2193L6.24941 12.1094L6.29476 11.9998L6.34127 11.8907L6.38891 11.7819L6.43771 11.6736L6.48764 11.5657L6.53871 11.4582L6.59091 11.3511L6.64425 11.2446L6.6987 11.1384L6.75428 11.0328L6.81097 10.9276L6.86878 10.823L6.92769 10.7188L6.9877 10.6151L7.04881 10.5121L7.11102 10.4095L7.1743 10.3075L7.23869 10.2061L7.30413 10.1052L7.37069 10.005L7.43821 9.90528L7.50693 9.80624L7.57661 9.70776L7.64733 9.60992L7.71917 9.5128L7.79197 9.41624L7.86589 9.3204L7.94077 9.2252L8.01669 9.13072L8.09357 9.03696L8.17149 8.94384L8.25045 8.85144L8.33037 8.75976L8.41125 8.66888L8.49317 8.57872L8.57597 8.48928L8.65981 8.40064L8.74461 8.31272L8.83029 8.22568L8.91693 8.13936L9.00453 8.05384L9.09309 7.9692L9.18253 7.88528L9.27285 7.80232L9.36413 7.72008L9.45629 7.6388L9.54925 7.55832L9.64317 7.47872L9.73797 7.4L9.83357 7.32216L9.93005 7.2452L10.0274 7.1692L10.1256 7.09408L10.2245 7.01992L10.3244 6.94664L10.4249 6.87432L10.5263 6.80296L10.6285 6.73256L10.7315 6.66312L10.8352 6.59472L10.9397 6.5272L11.0449 6.46072L11.1509 6.39523L11.2576 6.33074L11.3651 6.26727L11.4732 6.20482L11.582 6.1434L11.6916 6.08301L11.8017 6.02367L11.9126 5.96538L12.0241 5.90815L12.1363 5.85198L12.2491 5.79689L12.3625 5.74287L12.4766 5.68994L12.5912 5.6381L12.7065 5.58736L12.8224 5.53773L12.9388 5.48921L13.0557 5.4418L13.1732 5.39552L13.2912 5.35037L13.4098 5.30635L13.5289 5.26348L13.6485 5.22175L13.7686 5.18118L13.8892 5.14176L14.0101 5.10351L14.1316 5.06642L14.2536 5.03051L14.376 4.99578L14.4987 4.96223L14.6219 4.92987L14.7455 4.8987L14.8695 4.86874L14.9938 4.83998L15.1185 4.81241L15.2436 4.78606L15.3689 4.76092L15.4947 4.73701L15.6207 4.71431L15.747 4.69284L15.8736 4.6726L16.0005 4.65359L16.1276 4.63582L16.255 4.61929L16.3025 4.61359ZM16.3563 9.14888L16.3196 6.05751L16.2152 6.0721L16.103 6.08893L15.9907 6.10687L15.8791 6.12584L15.7673 6.14597L15.6561 6.16713L15.5452 6.18938L15.4346 6.21266L15.3243 6.23706L15.2142 6.26253L15.1044 6.28905L14.9952 6.31662L14.886 6.34529L14.7811 6.37392L14.6693 6.40568L14.5614 6.43744L14.454 6.47024L14.3471 6.504L14.2404 6.53888L14.1342 6.5748L14.0284 6.61168L13.9232 6.64952L13.8184 6.68848L13.7141 6.72832L13.6102 6.76928L13.5071 6.81112L13.404 6.85408L13.3017 6.89792L13.1998 6.94272L13.0987 6.98848L12.9978 7.03528L12.8975 7.08304L12.798 7.1316L12.6988 7.18128L12.6005 7.23176L12.5024 7.28336L12.4053 7.3356L12.3084 7.38912L12.2124 7.4432L12.117 7.49832L12.0221 7.5544L11.928 7.61128L11.8343 7.6692L11.7416 7.72776L11.6492 7.78736L11.5578 7.84776L11.467 7.90896L11.3768 7.97112L11.2872 8.03416L11.1987 8.09776L11.1106 8.16248L11.0232 8.22792L10.9367 8.29416L10.8509 8.36112L10.7657 8.42904L10.6815 8.4976L10.598 8.56696L10.5151 8.63728L10.4332 8.70808L10.352 8.77984L10.2715 8.85232L10.1919 8.92544L10.1132 8.99928L10.035 9.074L9.95797 9.1492L9.88165 9.2252L9.80605 9.302L9.73141 9.37936L9.65757 9.45752L9.58461 9.53624L9.51253 9.6156L9.44125 9.69568L9.37077 9.77648L9.30149 9.85768L9.23285 9.93968L9.16509 10.0223L9.09829 10.1054L9.03245 10.1891L8.96733 10.2736L8.90325 10.3585L8.84005 10.444L8.77781 10.5301L8.71645 10.6167L8.65613 10.7038L8.59669 10.7914L8.53813 10.8797L8.48053 10.9684L8.42397 11.0575L8.36837 11.1472L8.31365 11.2375L8.25989 11.3281L8.20717 11.4192L8.15533 11.5108L8.10461 11.6026L8.05477 11.6951L8.00581 11.7881L7.95805 11.8812L7.91117 11.975L7.86533 12.069L7.82045 12.1634L7.77661 12.2582L7.73373 12.3534L7.69189 12.4489L7.65101 12.5447L7.61125 12.6409L7.57245 12.7374L7.53461 12.8342L7.49781 12.9314L7.46213 13.0287L7.42733 13.1265L7.39373 13.2243L7.36101 13.3226L7.32941 13.421L7.29877 13.5198L7.26925 13.6186L7.24069 13.7178L7.21325 13.817L7.18678 13.9166L7.16137 14.0163L7.13701 14.1162L7.1137 14.2163L7.09142 14.3165L7.07018 14.4169L7.05001 14.5174L7.03086 14.6179L7.01277 14.7187L6.99574 14.8195L6.97973 14.9205L6.96479 15.0214L6.95088 15.1225L6.93803 15.2236L6.92622 15.3248L6.91546 15.426L6.90575 15.5273L6.89709 15.6286L6.88947 15.7298L6.8829 15.8311L6.87736 15.9324L6.87287 16.0336L6.86943 16.1348L6.86702 16.2359L6.86566 16.337L6.86534 16.4382L6.86605 16.5391L6.8678 16.64L6.87058 16.7408L6.87439 16.8414L6.87924 16.9421L6.88511 17.0426L6.89201 17.1428L6.89994 17.243L6.90888 17.343L6.91885 17.4429L6.92983 17.5426L6.94183 17.6421L6.95484 17.7414L6.96886 17.8405L6.98389 17.9394L6.99991 18.038L7.01694 18.1365L7.03498 18.2347L7.05399 18.3326L7.07401 18.4303L7.095 18.5277L7.11699 18.6249L7.13994 18.7216L7.16389 18.8182L7.1888 18.9144L7.21469 19.0103L7.24149 19.1058L7.26933 19.2011L7.29805 19.296L7.32781 19.3906L7.35845 19.4848L7.39005 19.5786L7.42261 19.6719L7.45605 19.765L7.49045 19.8576L7.52581 19.9498L7.56205 20.0416L7.59917 20.133L7.63725 20.2239L7.67621 20.3144L7.71613 20.4044L7.75685 20.494L7.79853 20.583L7.84109 20.6717L7.88445 20.7598L7.92877 20.8474L7.97389 20.9346L8.01989 21.0213L8.06677 21.1074L8.11445 21.193L8.16301 21.278L8.21237 21.3625L8.26261 21.4464L8.31365 21.5298L8.36549 21.6126L8.41813 21.6949L8.47165 21.7766L8.52581 21.8576L8.58093 21.9382L8.63669 22.018L8.69333 22.0973L8.75069 22.1759L8.80885 22.2539L8.86773 22.3313L8.92741 22.4081L8.98773 22.4842L9.04885 22.5596L9.11069 22.6344L9.17325 22.7086L9.23653 22.7819L9.30053 22.8548L9.36517 22.9268L9.43053 22.9982L9.49653 23.0689L9.56325 23.1389L9.63061 23.2082L9.69869 23.2767L9.76733 23.3446L9.83669 23.4117L9.90669 23.4781L9.97717 23.5437L10.0484 23.6086L10.1202 23.6727L10.1926 23.7361L10.2656 23.7987L10.3392 23.8606L10.4134 23.9217L10.4881 23.9819L10.5634 24.0414L10.6392 24.1002L10.7156 24.1582L10.7926 24.2153L10.87 24.2716L10.9479 24.3271L11.0264 24.3818L11.1053 24.4358L11.1848 24.4889L11.2648 24.5411L11.3452 24.5926L11.426 24.6432L11.5073 24.693L11.5891 24.7419L11.6713 24.79L11.7539 24.8372L11.837 24.8836L11.9204 24.9291L12.0043 24.9738L12.0885 25.0177L12.1731 25.0606L12.2581 25.1027L12.3436 25.1439L12.4292 25.1843L12.5152 25.2238L12.6017 25.2624L12.6884 25.3001L12.7754 25.3369L12.8628 25.3729L12.9504 25.4079L13.0383 25.4421L13.1265 25.4754L13.215 25.5078L13.3037 25.5393L13.3927 25.5698L13.482 25.5996L13.5714 25.6283L13.6611 25.6562L13.751 25.6832L13.8411 25.7093L13.9313 25.7345L14.0218 25.7587L14.1124 25.7822L14.2032 25.8046L14.2942 25.8261L14.3853 25.8467L14.4766 25.8665L14.568 25.8853L14.6594 25.9031L14.7511 25.9201L14.8427 25.9362L14.9345 25.9514L15.0264 25.9655L15.1183 25.9789L15.2103 25.9913L15.3023 26.0028L15.3944 26.0134L15.4864 26.023L15.5786 26.0318L15.6708 26.0396L15.7629 26.0465L15.8551 26.0526L15.9472 26.0576L16.0392 26.0618L16.1314 26.0651L16.2234 26.0675L16.3153 26.069L16.4072 26.0695L16.4991 26.0692L16.5908 26.0679L16.6825 26.0658L16.774 26.0628L16.8656 26.0589L16.9568 26.054L17.048 26.0483L17.1391 26.0417L17.23 26.0342L17.3208 26.0258L17.4114 26.0165L17.5019 26.0063L17.5921 25.9953L17.6822 25.9834L17.772 25.9706L17.8617 25.957L17.9512 25.9424L18.0403 25.927L18.1293 25.9107L18.218 25.8936L18.3065 25.8757L18.3948 25.8568L18.4827 25.8371L18.5704 25.8166L18.6577 25.7952L18.7448 25.773L18.8316 25.75L18.9181 25.7261L19.0043 25.7014L19.0901 25.6758L19.1756 25.6495L19.2607 25.6223L19.3456 25.5943L19.43 25.5655L19.514 25.5359L19.5977 25.5055L19.681 25.4743L19.7639 25.4423L19.8464 25.4095L19.9285 25.3759L20.0102 25.3416L20.0914 25.3065L20.1723 25.2706L20.2526 25.234L20.3326 25.1966L20.4121 25.1584L20.491 25.1196L20.5697 25.0798L20.6477 25.0395L20.7254 24.9983L20.8024 24.9566L20.879 24.914L20.9552 24.8707L21.0307 24.8267L21.1058 24.782L21.1804 24.7366L21.2543 24.6906L21.3279 24.6438L21.4007 24.5964L21.4731 24.5482L21.545 24.4994L21.6162 24.4499L21.6868 24.3999L21.757 24.349L21.8265 24.2978L21.8954 24.2457L21.9638 24.193L22.0313 24.1398L22.0986 24.0858L22.1652 24.0312L22.2308 23.9762L22.2963 23.9202L22.3608 23.864L22.4248 23.8072L22.4883 23.7495L22.5508 23.6916L22.6129 23.633L22.6744 23.5738L22.735 23.5141L22.7951 23.4538L22.8545 23.393L22.9132 23.3316L22.9712 23.2698L23.0285 23.2074L23.0852 23.1445L23.1411 23.0812L23.1964 23.0172L23.2509 22.9529L23.3047 22.8881L23.3579 22.8226L23.4102 22.757L23.4619 22.6907L23.5128 22.6241L23.5631 22.5569L23.6125 22.4894L23.6612 22.4215L23.7092 22.353L23.7564 22.2842L23.8029 22.215L23.8488 22.1454L23.8936 22.0755L23.9379 22.0051L23.9813 21.9343L24.024 21.8633L24.0659 21.7918L24.1072 21.7199L24.1474 21.648L24.1871 21.5754L24.2259 21.5026L24.2638 21.4296L24.3012 21.356L24.3375 21.2826L24.3732 21.2083L24.408 21.1343L24.4422 21.0595L24.4753 20.9849L24.5079 20.9096L24.5396 20.8344L24.5704 20.7589L24.6004 20.683L24.6297 20.607L24.658 20.5309L24.6858 20.4543L24.7125 20.3777L24.7385 20.3009L24.7637 20.2238L24.7881 20.1466L24.8117 20.0692L24.8344 19.9918L24.8564 19.914L24.8774 19.8362L24.8977 19.7582L24.9172 19.6802L24.9358 19.6021L24.9536 19.5236L24.9706 19.4452L24.9869 19.3667L25.0021 19.2882L25.0167 19.2096L25.0304 19.1306L25.0432 19.052L25.0553 18.9731L25.0665 18.8942L25.0769 18.8154L25.0865 18.7364L25.0953 18.6572L25.1033 18.5786L25.1104 18.4993L25.1168 18.4203L25.1222 18.3415L25.1269 18.2625L25.1308 18.1836L25.1338 18.1048L25.136 18.0258L25.1374 17.9472L25.1381 17.8683L25.1378 17.7897L25.1369 17.711L25.135 17.6327L25.1324 17.5542L25.1289 17.4759L25.1247 17.3979L25.1196 17.3197L25.1138 17.2417L25.1072 17.1641L25.0998 17.0862L25.0916 17.0089L25.0825 16.9314L25.0728 16.8542L25.0622 16.7772L25.0508 16.7002L25.0387 16.6236L25.0258 16.5472L25.0121 16.471L24.9977 16.395L24.9824 16.3189L24.9664 16.2434L24.9496 16.1681L24.9321 16.0929L24.9138 16.0178L24.8948 15.9434L24.875 15.8688L24.8545 15.7948L24.8333 15.7209L24.8112 15.6474L24.7885 15.5741L24.765 15.501L24.7409 15.4285L24.716 15.3562L24.6902 15.2839L24.664 15.2123L24.6368 15.1409L24.6091 15.0699L24.5806 14.9991L24.5514 14.9286L24.5216 14.8588L24.4909 14.789L24.4597 14.7198L24.4278 14.651L24.3952 14.5824L24.3618 14.5142L24.328 14.4466L24.2932 14.3791L24.258 14.3123L24.2221 14.2459L24.1855 14.1796L24.1484 14.1141L24.1104 14.0488L24.072 13.9841L24.0328 13.9196L23.9932 13.8558L23.9527 13.7922L23.9118 13.7294L23.8702 13.6669L23.828 13.6049L23.7852 13.5432L23.7418 13.4822L23.698 13.4217L23.6533 13.3614L23.6083 13.3019L23.5625 13.2428L23.5164 13.1843L23.4696 13.1262L23.4222 13.0686L23.3743 13.0116L23.3259 12.955L23.277 12.8992L23.2274 12.8437L23.1775 12.7889L23.1269 12.7345L23.076 12.6809L23.0244 12.6275L22.9724 12.575L22.9198 12.5227L22.8668 12.4713L22.8135 12.4204L22.7596 12.37L22.7051 12.3202L22.6502 12.271L22.5949 12.2225L22.539 12.1743L22.4831 12.1271L22.4264 12.0802L22.3693 12.034L22.3119 11.9885L22.254 11.9434L22.1957 11.899L22.1372 11.8554L22.078 11.8122L22.0184 11.7696L21.9588 11.7279L21.8984 11.6866L21.8381 11.6462L21.7773 11.6062L21.716 11.5668L21.6543 11.5281L21.5925 11.4902L21.5301 11.4527L21.4676 11.4161L21.4046 11.3799L21.3417 11.3446L21.2781 11.3099L21.2143 11.2758L21.1502 11.2423L21.086 11.2097L21.0213 11.1775L20.9564 11.1461L20.8913 11.1154L20.8261 11.0854L20.7602 11.0558L20.6946 11.0272L20.6285 10.9992L20.5621 10.9718L20.4956 10.9451L20.4291 10.9192L20.3622 10.8939L20.2949 10.8692L20.2278 10.8454L20.1603 10.8221L20.0926 10.7995L20.025 10.7777L19.9571 10.7566L19.8892 10.7361L19.8207 10.7162L19.7524 10.6972L19.684 10.6788L19.6155 10.6611L19.5469 10.6441L19.4779 10.6278L19.4091 10.6122L19.3403 10.5973L19.2712 10.583L19.2019 10.5694L19.133 10.5567L19.0637 10.5446L18.9944 10.5331L18.9249 10.5223L18.8558 10.5123L18.7861 10.5029L18.7169 10.4943L18.6475 10.4863L18.578 10.479L18.5087 10.4725L18.4392 10.4666L18.37 10.4614L18.3004 10.4569L18.2311 10.453L18.162 10.4499L18.0924 10.4474L18.0233 10.4457L17.9542 10.4446L17.8852 10.4442L17.838 10.4444L17.8737 13.4647L17.8951 13.4648L17.9348 13.4654L17.9745 13.4663L18.0144 13.4676L18.0542 13.4694L18.0941 13.4716L18.134 13.4742L18.174 13.4772L18.214 13.4806L18.2541 13.4845L18.2942 13.4887L18.3343 13.4934L18.3744 13.4985L18.4145 13.504L18.4547 13.5099L18.4948 13.5163L18.535 13.5231L18.5751 13.5303L18.6152 13.538L18.6553 13.546L18.6954 13.5546L18.7355 13.5634L18.7756 13.5728L18.8155 13.5826L18.8555 13.5927L18.8954 13.6034L18.9352 13.6144L18.9751 13.6258L19.0148 13.6378L19.0545 13.6501L19.0941 13.6629L19.1337 13.6761L19.1732 13.6897L19.2126 13.7037L19.2519 13.7182L19.2911 13.733L19.3302 13.7483L19.3692 13.7641L19.4081 13.7802L19.4469 13.7968L19.4856 13.8138L19.5242 13.8313L19.5627 13.8491L19.601 13.8674L19.6392 13.8861L19.6772 13.9052L19.7151 13.9248L19.7528 13.9447L19.7904 13.9651L19.8279 13.9859L19.8652 14.0071L19.9023 14.0287L19.9392 14.0507L19.976 14.0732L20.0125 14.0961L20.0489 14.1194L20.0851 14.143L20.1211 14.167L20.1569 14.1916L20.1925 14.2165L20.2279 14.2418L20.2631 14.2674L20.298 14.2935L20.3328 14.32L20.3672 14.3469L20.4016 14.3742L20.4356 14.4018L20.4693 14.4298L20.5029 14.4583L20.5362 14.4871L20.5693 14.5163L20.602 14.5459L20.6345 14.5759L20.6668 14.6062L20.6987 14.637L20.7304 14.6681L20.7618 14.6995L20.7929 14.7314L20.8238 14.7635L20.8543 14.7961L20.8845 14.829L20.9144 14.8623L20.9441 14.8959L20.9734 14.9299L21.0024 14.9642L21.0311 14.9989L21.0594 15.0339L21.0874 15.0693L21.1151 15.105L21.1424 15.141L21.1695 15.1774L21.1961 15.2141L21.2224 15.251L21.2484 15.2884L21.274 15.3261L21.2992 15.3641L21.324 15.4023L21.3486 15.441L21.3727 15.4798L21.3965 15.519L21.4198 15.5586L21.4428 15.5983L21.4654 15.6384L21.4876 15.6788L21.5094 15.7194L21.5308 15.7604L21.5518 15.8016L21.5724 15.843L21.5926 15.8848L21.6124 15.9269L21.6317 15.9691L21.6507 16.0117L21.6692 16.0545L21.6873 16.0975L21.705 16.1408L21.7222 16.1843L21.739 16.2281L21.7554 16.2721L21.7713 16.3163L21.7868 16.3608L21.8018 16.4054L21.8164 16.4503L21.8305 16.4954L21.8441 16.5407L21.8573 16.5862L21.87 16.632L21.8824 16.6778L21.8942 16.7239L21.9055 16.7702L21.9164 16.8167L21.9268 16.8633L21.9367 16.9102L21.9461 16.9571L21.955 17.0042L21.9635 17.0515L21.9715 17.099L21.979 17.1465L21.986 17.1942L21.9924 17.2421L21.9984 17.2901L22.004 17.3382L22.009 17.3865L22.0135 17.4348L22.0175 17.4833L22.021 17.5319L22.024 17.5806L22.0264 17.6294L22.0284 17.6782L22.0299 17.7272L22.0308 17.7762L22.0312 17.8254L22.0311 17.8745L22.0305 17.9238L22.0294 17.9731L22.0277 18.0225L22.0256 18.0719L22.0228 18.1214L22.0196 18.1709L22.0159 18.2204L22.0116 18.27L22.0068 18.3196L22.0015 18.3692L21.9956 18.4188L21.9892 18.4685L21.9823 18.5182L21.9748 18.5678L21.9668 18.6174L21.9583 18.667L21.9492 18.7166L21.9396 18.7662L21.9296 18.8157L21.9188 18.8652L21.9076 18.9146L21.896 18.9641L21.8836 19.0134L21.8708 19.0628L21.8576 19.112L21.8436 19.1612L21.8293 19.2102L21.8143 19.2593L21.7988 19.3082L21.7829 19.357L21.7663 19.4058L21.7493 19.4545L21.7316 19.503L21.7134 19.5514L21.6948 19.5997L21.6756 19.6479L21.6558 19.6959L21.6356 19.7438L21.6148 19.7916L21.5934 19.8393L21.5716 19.8867L21.5492 19.934L21.5262 19.9812L21.5028 20.0282L21.4788 20.075L21.4544 20.1216L21.4293 20.168L21.4038 20.2142L21.3778 20.2603L21.3512 20.3062L21.3241 20.3518L21.2966 20.3972L21.2684 20.4425L21.2399 20.4874L21.2108 20.5322L21.1811 20.5767L21.151 20.621L21.1204 20.665L21.0892 20.7088L21.0576 20.7523L21.0255 20.7956L20.9928 20.8386L20.9597 20.8813L20.9261 20.9238L20.892 20.9659L20.8575 21.0078L20.8224 21.0494L20.7869 21.0906L20.7508 21.1316L20.7144 21.1722L20.6774 21.2126L20.64 21.2526L20.6021 21.2923L20.5637 21.3318L20.5249 21.3708L20.4856 21.4094L20.446 21.4478L20.4057 21.4858L20.3651 21.5234L20.324 21.5607L20.2825 21.5977L20.2406 21.6342L20.1982 21.6704L20.1554 21.7062L20.1121 21.7416L20.0684 21.7766L20.0244 21.8112L19.9799 21.8454L19.935 21.8793L19.8896 21.9127L19.844 21.9457L19.7978 21.9782L19.7513 22.0105L19.7044 22.0422L19.6571 22.0735L19.6094 22.1043L19.5613 22.1348L19.5128 22.1648L19.464 22.1943L19.4148 22.2234L19.3653 22.252L19.3154 22.2802L19.2651 22.3078L19.2145 22.3351L19.1636 22.3618L19.1123 22.3882L19.0606 22.4139L19.0087 22.4393L18.9564 22.4641L18.9037 22.4884L18.8508 22.5122L18.7976 22.5355L18.744 22.5584L18.6902 22.5807L18.636 22.6025L18.5816 22.6238L18.5268 22.6446L18.4718 22.6648L18.4165 22.6846L18.361 22.7038L18.3052 22.7224L18.2491 22.7406L18.1928 22.7581L18.1362 22.7751L18.0793 22.7917L18.0223 22.8076L17.965 22.823L17.9075 22.8378L17.8497 22.8522L17.7917 22.8658L17.7336 22.879L17.6752 22.8916L17.6166 22.9037L17.5578 22.9151L17.4988 22.926L17.4397 22.9363L17.3804 22.9461L17.3209 22.9552L17.2612 22.9638L17.2015 22.9718L17.1415 22.9792L17.0814 22.986L17.0212 22.9922L16.9608 22.9978L16.9003 23.0028L16.8396 23.0073L16.7788 23.011L16.718 23.0143L16.6571 23.017L16.596 23.019L16.5349 23.0203L16.4736 23.0211L16.4124 23.0214L16.351 23.021L16.2896 23.0199L16.228 23.0182L16.1665 23.016L16.1049 23.0131L16.0433 23.0096L15.9816 23.0055L15.9199 23.0008L15.8582 22.9954L15.7964 22.9894L15.7348 22.9829L15.673 22.9756L15.6113 22.9678L15.5496 22.9593L15.4879 22.9502L15.4262 22.9405L15.3646 22.9302L15.303 22.9192L15.2415 22.9076L15.18 22.8954L15.1185 22.8826L15.0572 22.8691L14.9959 22.855L14.9347 22.8402L14.8735 22.825L14.8124 22.809L14.7516 22.7923L14.6907 22.7751L14.63 22.7573L14.5694 22.7388L14.5089 22.7197L14.4486 22.7L14.3884 22.6797L14.3284 22.6587L14.2684 22.6371L14.2087 22.6149L14.1492 22.5921L14.0897 22.5686L14.0305 22.5446L13.9715 22.5199L13.9127 22.4946L13.854 22.4687L13.7956 22.4422L13.7374 22.4151L13.6793 22.3874L13.6216 22.359L13.564 22.3301L13.5068 22.3006L13.4497 22.2704L13.3929 22.2397L13.3364 22.2083L13.2801 22.1764L13.224 22.1438L13.1684 22.1107L13.1129 22.077L13.0578 22.0427L13.0029 22.0078L12.9484 21.9724L12.8941 21.9363L12.8402 21.8997L12.7867 21.8625L12.7334 21.8247L12.6804 21.7864L12.6279 21.7474L12.5756 21.708L12.5238 21.668L12.4723 21.6274L12.4212 21.5862L12.3704 21.5446L12.32 21.5023L12.27 21.4595L12.2204 21.4162L12.1712 21.3723L12.1224 21.3279L12.074 21.283L12.026 21.2375L11.9784 21.1915L11.9312 21.145L11.8846 21.098L11.8384 21.0505L11.7925 21.0024L11.7472 20.9539L11.7023 20.9048L11.6579 20.8553L11.6139 20.8053L11.5704 20.7547L11.5274 20.7038L11.4848 20.6522L11.4428 20.6002L11.4013 20.5478L11.3603 20.495L11.3197 20.4416L11.2797 20.3878L11.2403 20.3335L11.2013 20.2788L11.1628 20.2236L11.1249 20.168L11.0876 20.112L11.0508 20.0555L11.0145 19.9986L10.9788 19.9414L10.9436 19.8837L10.909 19.8255L10.875 19.767L10.8416 19.7081L10.8087 19.6488L10.7764 19.5891L10.7447 19.529L10.7136 19.4686L10.683 19.4078L10.6531 19.3466L10.6238 19.285L10.5951 19.2232L10.567 19.161L10.5396 19.0984L10.5127 19.0354L10.4864 18.9722L10.4608 18.9086L10.4359 18.8448L10.4116 18.7806L10.388 18.7161L10.3649 18.6513L10.3425 18.5862L10.3208 18.5209L10.2997 18.4552L10.2793 18.3893L10.2596 18.3231L10.2404 18.2566L10.222 18.1899L10.2044 18.123L10.1872 18.0558L10.1709 17.9883L10.1552 17.9207L10.1402 17.8528L10.1259 17.7847L10.1123 17.7164L10.0993 17.6479L10.0871 17.5792L10.0756 17.5103L10.0648 17.4413L10.0546 17.372L10.0452 17.3026L10.0365 17.233L10.0285 17.1634L10.0212 17.0934L10.0147 17.0234L10.0088 16.9533L10.0037 16.883L9.99933 16.8126L9.99565 16.7422L9.99269 16.6716L9.99045 16.6009L9.98901 16.5301L9.98829 16.4593L9.98821 16.3883L9.98893 16.3173L9.99045 16.2462L9.99261 16.1751L9.99557 16.1039L9.99925 16.0327L10.0036 15.9615L10.0088 15.8902L10.0147 15.819L10.0213 15.7477L10.0287 15.6764L10.0368 15.6051L10.0457 15.5338L10.0553 15.4626L10.0657 15.3914L10.0768 15.3202L10.0888 15.2491L10.1013 15.178L10.1147 15.107L10.1288 15.036L10.1437 14.9651L10.1593 14.8943L10.1756 14.8236L10.1928 14.753L10.2106 14.6825L10.2292 14.6121L10.2486 14.5418L10.2687 14.4717L10.2895 14.4016L10.3111 14.3318L10.3334 14.262L10.3564 14.1924L10.3803 14.123L10.4048 14.0538L10.4301 13.9847L10.4561 13.9158L10.4829 13.8472L10.5104 13.7787L10.5387 13.7104L10.5676 13.6424L10.5973 13.5746L10.6278 13.507L10.6589 13.4396L10.6908 13.3725L10.7234 13.3057L10.7568 13.239L10.7908 13.1727L10.8256 13.1067L10.861 13.041L10.8972 12.9755L10.9341 12.9103L10.9717 12.8454L11.01 12.781L11.0491 12.7167L11.0888 12.6528L11.1292 12.5893L11.1704 12.526L11.2121 12.4631L11.2546 12.4006L11.2978 12.3385L11.3416 12.2767L11.3862 12.2154L11.4314 12.1543L11.4772 12.0937L11.5238 12.0335L11.571 11.9737L11.6189 11.9143L11.6675 11.8553L11.7166 11.7968L11.7664 11.7386L11.8169 11.681L11.868 11.6238L11.9198 11.567L11.9722 11.5107L12.0252 11.4549L12.0789 11.3995L12.1332 11.3446L12.188 11.2902L12.2436 11.2363L12.2996 11.183L12.3564 11.1301L12.4136 11.0777L12.4715 11.0258L12.53 10.9745L12.5891 10.9238L12.6487 10.8734L12.7089 10.8238L12.7696 10.7746L12.831 10.726L12.8928 10.678L12.9553 10.6306L13.0183 10.5837L13.0818 10.5374L13.1459 10.4917L13.2104 10.4466L13.2756 10.402L13.3412 10.3581L13.4073 10.3148L13.474 10.2722L13.5412 10.2301L13.6088 10.1886L13.6769 10.1478L13.7455 10.1077L13.8146 10.0682L13.8841 10.0293L13.9541 9.99104L14.0246 9.95352L14.0955 9.91664L14.1668 9.8804L14.2386 9.84488L14.3108 9.81L14.3835 9.77584L14.4565 9.74232L14.53 9.70952L14.6038 9.67744L14.6781 9.646L14.7528 9.61528L14.8277 9.58536L14.9032 9.55608L14.9789 9.52752L15.055 9.49968L15.1315 9.47264L15.2084 9.44624L15.2855 9.42064L15.363 9.39576L15.4408 9.3716L15.5189 9.34824L15.5973 9.3256L15.676 9.30376L15.7551 9.28264L15.8344 9.26224L15.914 9.24264L15.9938 9.22384L16.074 9.20584L16.1543 9.18856L16.2349 9.17208L16.3157 9.1564L16.3563 9.14888ZM17.3498 14.9571L16.4277 15.1774L16.3736 10.6098L16.3301 10.6196L16.2647 10.635L16.1993 10.6511L16.1344 10.6678L16.0696 10.685L16.0052 10.703L15.9408 10.7216L15.8771 10.7406L15.8132 10.7605L15.75 10.7807L15.6868 10.8018L15.6239 10.8234L15.5613 10.8455L15.499 10.8682L15.4372 10.8915L15.3756 10.9155L15.3142 10.94L15.2532 10.965L15.1924 10.9908L15.1323 11.0169L15.0722 11.0438L15.0127 11.071L14.9532 11.099L14.8944 11.1274L14.8356 11.1565L14.7776 11.186L14.7197 11.2161L14.6623 11.2467L14.6052 11.2778L14.5485 11.3095L14.4922 11.3418L14.4365 11.3744L14.3808 11.4078L14.3257 11.4414L14.2712 11.4757L14.2169 11.5104L14.163 11.5457L14.1096 11.5814L14.0567 11.6177L14.0041 11.6543L13.9521 11.6914L13.9004 11.7291L13.8492 11.7673L13.7984 11.8058L13.7481 11.8449L13.6984 11.8842L13.6491 11.9242L13.6001 11.9646L13.5517 12.0054L13.5038 12.0466L13.4564 12.0882L13.4094 12.1302L13.3629 12.1727L13.3169 12.2157L13.2715 12.259L13.2265 12.3026L13.182 12.3467L13.138 12.3911L13.0946 12.436L13.0517 12.4811L13.0092 12.5269L12.9673 12.5727L12.926 12.619L12.8851 12.6658L12.8448 12.7126L12.805 12.7601L12.7659 12.8076L12.7271 12.8558L12.689 12.904L12.6513 12.9527L12.6143 13.0018L12.5778 13.051L12.5418 13.1005L12.5064 13.1503L12.4716 13.2006L12.4372 13.251L12.4036 13.3018L12.3704 13.3526L12.3379 13.4038L12.3058 13.4554L12.2744 13.5071L12.2435 13.5593L12.2132 13.6114L12.1835 13.6639L12.1543 13.7166L12.1258 13.7695L12.0978 13.8226L12.0704 13.876L12.0436 13.9297L12.0174 13.9833L11.9917 14.0374L11.9667 14.0914L11.9423 14.1458L11.9184 14.2002L11.8951 14.255L11.8724 14.3097L11.8504 14.3647L11.8289 14.4198L11.808 14.4751L11.7877 14.5304L11.768 14.586L11.7489 14.6417L11.7304 14.6974L11.7125 14.7533L11.6952 14.8094L11.6785 14.8654L11.6625 14.9215L11.647 14.9778L11.632 15.0342L11.6178 15.0906L11.6041 15.1471L11.591 15.2037L11.5785 15.2603L11.5667 15.317L11.5554 15.3737L11.5447 15.4304L11.5346 15.4873L11.5252 15.544L11.5163 15.6008L11.508 15.6578L11.5003 15.7145L11.4932 15.7714L11.4868 15.8282L11.4808 15.885L11.4756 15.942L11.4708 15.9987L11.4668 16.0555L11.4632 16.1123L11.4603 16.169L11.458 16.2256L11.4562 16.2822L11.4551 16.3388L11.4544 16.3953L11.4545 16.4517L11.4551 16.508L11.4563 16.5643L11.458 16.6205L11.4604 16.6766L11.4632 16.7326L11.4668 16.7884L11.4708 16.8442L11.4755 16.8998L11.4807 16.9554L11.4864 17.0109L11.4928 17.066L11.4996 17.1213L11.5071 17.1762L11.5152 17.2311L11.5237 17.2858L11.5328 17.3403L11.5425 17.3948L11.5528 17.449L11.5636 17.503L11.5748 17.5568L11.5868 17.6106L11.5992 17.664L11.6121 17.7174L11.6256 17.7703L11.6396 17.8234L11.6541 17.8759L11.6692 17.9285L11.6848 17.9806L11.7008 18.0327L11.7175 18.0845L11.7346 18.1359L11.7523 18.1874L11.7704 18.2384L11.7891 18.2891L11.8082 18.3398L11.8279 18.3901L11.848 18.4401L11.8687 18.4898L11.8897 18.5393L11.9114 18.5886L11.9335 18.6375L11.956 18.6862L11.9791 18.7345L12.0025 18.7825L12.0266 18.8304L12.0509 18.8778L12.0758 18.9249L12.1012 18.9718L12.127 19.0182L12.1532 19.0645L12.1799 19.1104L12.207 19.1558L12.2346 19.2011L12.2625 19.246L12.2909 19.2905L12.3198 19.3347L12.349 19.3786L12.3787 19.4222L12.4087 19.4651L12.4392 19.508L12.47 19.5504L12.5012 19.5924L12.533 19.6342L12.565 19.6754L12.5974 19.7163L12.6302 19.7569L12.6634 19.7971L12.6968 19.8368L12.7308 19.8762L12.7651 19.9153L12.7996 19.9538L12.8348 19.9921L12.87 20.0298L12.9056 20.0673L12.9416 20.1042L12.9779 20.1408L13.0146 20.177L13.0516 20.2127L13.0888 20.2481L13.1264 20.283L13.1644 20.3174L13.2026 20.3515L13.2411 20.3851L13.2799 20.4183L13.3189 20.4511L13.3583 20.4834L13.398 20.5154L13.438 20.5468L13.478 20.5778L13.5185 20.6083L13.5592 20.6385L13.6002 20.6682L13.6414 20.6974L13.6828 20.7262L13.7245 20.7545L13.7664 20.7823L13.8085 20.8097L13.8508 20.8366L13.8936 20.8632L13.9363 20.8891L13.9792 20.9147L14.0225 20.9398L14.0658 20.9644L14.1093 20.9886L14.1532 21.0123L14.1972 21.0355L14.2412 21.0582L14.2855 21.0805L14.33 21.1023L14.3745 21.1236L14.4194 21.1445L14.4643 21.1649L14.5092 21.1847L14.5545 21.2042L14.5999 21.2231L14.6452 21.2416L14.6908 21.2596L14.7365 21.277L14.7824 21.2941L14.8282 21.3106L14.8744 21.3267L14.9204 21.3422L14.9665 21.3574L15.0128 21.372L15.0592 21.3862L15.1056 21.3998L15.1521 21.413L15.1988 21.4256L15.2454 21.4378L15.292 21.4495L15.3388 21.4608L15.3855 21.4715L15.4323 21.4818L15.4792 21.4916L15.526 21.5009L15.5729 21.5098L15.6198 21.5181L15.6668 21.526L15.7137 21.5334L15.7607 21.5403L15.8075 21.5467L15.8544 21.5526L15.9013 21.5582L15.9483 21.5632L15.9952 21.5677L16.042 21.5718L16.0888 21.5754L16.1356 21.5785L16.1824 21.5811L16.229 21.5833L16.2756 21.585L16.3223 21.5862L16.3687 21.587L16.4151 21.5874L16.4615 21.5872L16.5077 21.5866L16.554 21.5855L16.6002 21.584L16.6461 21.5821L16.692 21.5796L16.738 21.5767L16.7836 21.5734L16.8293 21.5696L16.8748 21.5654L16.9202 21.5607L16.9655 21.5555L17.0105 21.55L17.0556 21.544L17.1004 21.5375L17.1451 21.5306L17.1898 21.5234L17.2342 21.5156L17.2784 21.5074L17.3226 21.4988L17.3666 21.4898L17.4103 21.4803L17.4538 21.4705L17.4973 21.4602L17.5406 21.4494L17.5836 21.4384L17.6265 21.4269L17.6692 21.415L17.7118 21.4026L17.754 21.3898L17.796 21.3767L17.838 21.3631L17.8797 21.3492L17.9211 21.335L17.9623 21.3202L18.0032 21.3051L18.0441 21.2896L18.0847 21.2738L18.1249 21.2575L18.165 21.241L18.2048 21.2239L18.2445 21.2066L18.2837 21.1889L18.3229 21.1708L18.3617 21.1524L18.4002 21.1336L18.4386 21.1145L18.4765 21.095L18.5144 21.0752L18.5519 21.055L18.5891 21.0345L18.626 21.0137L18.6627 20.9925L18.6991 20.971L18.7351 20.9491L18.7708 20.927L18.8064 20.9045L18.8416 20.8818L18.8765 20.8586L18.9111 20.8353L18.9454 20.8115L18.9794 20.7875L19.013 20.7633L19.0464 20.7386L19.0794 20.7138L19.1121 20.6886L19.1445 20.6631L19.1767 20.6374L19.2084 20.6114L19.2398 20.5852L19.2708 20.5586L19.3016 20.5318L19.3321 20.5048L19.3621 20.4774L19.3919 20.4499L19.4212 20.4222L19.4503 20.3941L19.479 20.3658L19.5074 20.3373L19.5354 20.3086L19.563 20.2795L19.5903 20.2504L19.6173 20.2209L19.6438 20.1914L19.6701 20.1614L19.696 20.1314L19.7214 20.1012L19.7467 20.0706L19.7713 20.0401L19.7958 20.0092L19.8199 19.9782L19.8435 19.947L19.8668 19.9156L19.8897 19.8842L19.9123 19.8523L19.9345 19.8204L19.9563 19.7885L19.9777 19.7562L19.9988 19.7238L20.0194 19.6914L20.0397 19.6587L20.0596 19.6259L20.0792 19.593L20.0984 19.5599L20.1171 19.5267L20.1355 19.4934L20.1535 19.4599L20.1711 19.4265L20.1883 19.3928L20.2052 19.359L20.2216 19.3252L20.2377 19.2911L20.2534 19.2571L20.2687 19.223L20.2836 19.1888L20.2981 19.1544L20.3122 19.1201L20.326 19.0854L20.3393 19.0511L20.3524 19.0162L20.3648 18.9819L20.3771 18.947L20.3889 18.9122L20.4003 18.8774L20.4113 18.8426L20.422 18.8078L20.4323 18.7726L20.442 18.7378L20.4517 18.7026L20.4607 18.6678L20.4694 18.6326L20.4777 18.5974L20.4856 18.5625L20.4932 18.5276L20.5004 18.4922L20.5072 18.4573L20.5136 18.422L20.5196 18.3871L20.5252 18.3521L20.5305 18.317L20.5354 18.2818L20.5399 18.2468L20.5441 18.2119L20.5478 18.1771L20.5512 18.142L20.5542 18.1072L20.5568 18.0723L20.5591 18.0375L20.561 18.0028L20.5625 17.9682L20.5637 17.9337L20.5644 17.899L20.5649 17.8643L20.565 17.83L20.5647 17.7957L20.564 17.7614L20.563 17.7273L20.5616 17.693L20.5599 17.6593L20.5578 17.6249L20.5554 17.5914L20.5526 17.5577L20.5495 17.5238L20.546 17.4902L20.5422 17.457L20.538 17.4234L20.5335 17.3904L20.5286 17.3572L20.5235 17.3245L20.5179 17.2914L20.512 17.2586L20.5059 17.2262L20.4994 17.1938L20.4925 17.1613L20.4853 17.1292L20.4779 17.0971L20.47 17.0653L20.462 17.0337L20.4534 17.0018L20.4448 16.9706L20.4356 16.9391L20.4263 16.9082L20.4166 16.8772L20.4066 16.8465L20.3963 16.8158L20.3856 16.7853L20.3748 16.7552L20.3636 16.7252L20.3521 16.6951L20.3404 16.6655L20.3283 16.6358L20.316 16.6067L20.3033 16.5774L20.2905 16.5485L20.2773 16.5198L20.2639 16.4912L20.2502 16.4629L20.2362 16.4347L20.222 16.4067L20.2075 16.379L20.1927 16.3515L20.1777 16.3242L20.1624 16.2971L20.1468 16.2702L20.1312 16.2436L20.1152 16.2172L20.0989 16.1909L20.0824 16.165L20.0656 16.1393L20.0487 16.1138L20.0315 16.0884L20.0141 16.0634L19.9965 16.0386L19.9786 16.014L19.9605 15.9897L19.9422 15.9656L19.9238 15.9418L19.905 15.9181L19.8861 15.8948L19.867 15.8717L19.8477 15.8488L19.8282 15.8262L19.8086 15.8038L19.7887 15.7818L19.7686 15.7599L19.7484 15.7382L19.728 15.717L19.7073 15.6959L19.6865 15.675L19.6656 15.6546L19.6445 15.6343L19.6233 15.6143L19.6017 15.5945L19.5803 15.575L19.5585 15.5558L19.5367 15.5369L19.5146 15.5182L19.4924 15.4998L19.4701 15.4817L19.4477 15.4638L19.4252 15.4462L19.4024 15.4289L19.3797 15.4119L19.3567 15.3951L19.3336 15.3786L19.3104 15.3625L19.2872 15.3465L19.2638 15.3309L19.2403 15.3155L19.2166 15.3004L19.193 15.2856L19.1691 15.271L19.1452 15.2568L19.1213 15.2429L19.0972 15.2292L19.073 15.2158L19.0488 15.2026L19.0246 15.1898L19.0002 15.1772L18.9759 15.165L18.9512 15.1529L18.9268 15.1412L18.9021 15.1298L18.8775 15.1186L18.8528 15.1078L18.8279 15.0971L18.8032 15.0869L18.7783 15.0769L18.7533 15.0671L18.7284 15.0577L18.7035 15.0485L18.6785 15.0396L18.6535 15.031L18.6284 15.0226L18.6035 15.0146L18.5784 15.0067L18.5532 14.9992L18.5283 14.992L18.503 14.985L18.478 14.9784L18.4529 14.972L18.4278 14.9658L18.4027 14.96L18.3776 14.9544L18.3525 14.9491L18.3275 14.9441L18.3025 14.9393L18.2776 14.9348L18.2524 14.9306L18.2276 14.9266L18.2025 14.923L18.1778 14.9195L18.1528 14.9163L18.128 14.9134L18.1034 14.9108L18.0786 14.9085L18.054 14.9063L18.0293 14.9045L18.0048 14.9029L17.9802 14.9015L17.9557 14.9005L17.9315 14.8997L17.9071 14.899L17.8828 14.8987L17.8586 14.8986L17.8345 14.8989L17.8104 14.8993L17.7865 14.8999L17.7626 14.9009L17.7389 14.902L17.7151 14.9034L17.6916 14.905L17.668 14.9069L17.6446 14.909L17.6213 14.9114L17.598 14.9139L17.5749 14.9167L17.5519 14.9198L17.529 14.923L17.5061 14.9266L17.4835 14.9302L17.4608 14.9342L17.4385 14.9383L17.416 14.9427L17.3939 14.9473L17.3717 14.9521L17.3498 14.9571Z" fill="#697077"/>
</svg>
