<svg width="35" height="32" viewBox="0 0 35 32" fill="none" xmlns="http://www.w3.org/2000/svg">
<path d="M23.6019 26.4845L2.1893 11.714C0.0193917 10.2173 0.757017 7.10088 3.46284 6.36802L26.2206 0.191307C26.7027 0.0173566 27.2193 -0.0391112 27.7276 0.0265948C28.2358 0.0923008 28.7211 0.278283 29.1432 0.569108C29.5651 0.859932 29.9117 1.24721 30.154 1.6988C30.3963 2.15038 30.5275 2.65326 30.5366 3.16568L29.1878 24.1116C29.0279 26.5978 25.7718 27.9812 23.6019 26.4845Z" fill="#697077"/>
<path d="M16.8105 30.1304L4.19566 5.46055C3.90729 4.89618 3.7804 4.26312 3.82897 3.63121C3.87753 2.9993 4.09968 2.39308 4.47089 1.8794C4.84212 1.36572 5.34799 0.96454 5.93273 0.720098C6.51747 0.475655 7.15836 0.397452 7.78472 0.494119L31.1632 4.10227C31.7014 4.18535 32.2122 4.395 32.6537 4.71398C33.0951 5.03297 33.4545 5.45218 33.7024 5.93714C33.9502 6.4221 34.0794 6.95895 34.0793 7.50358C34.0792 8.04819 33.9498 8.58502 33.7019 9.0699L22.9323 30.1316C22.6431 30.6943 22.2044 31.1665 21.6643 31.4961C21.1242 31.8257 20.5038 32 19.8711 31.9999C19.2383 31.9997 18.6179 31.8252 18.078 31.4955C17.538 31.1656 17.0995 30.6933 16.8105 30.1304Z" fill="#697077"/>
<path d="M24.5 8.72693L20.0112 8L14.5 9.57011L16.6998 14.0856L21.851 17.8153C21.9647 17.8966 22.0897 17.959 22.2216 18L24.1782 13.9852L24.5 8.72693Z" fill="white"/>
</svg>
