<svg width="40" height="37" viewBox="0 0 40 37" fill="none" xmlns="http://www.w3.org/2000/svg">
<path d="M14.232 22.498L12 4.89599L9.768 22.496H2C0.896 22.496 0 21.622 0 20.544C0.00633017 20.0196 0.220478 19.519 0.595442 19.1523C0.970406 18.7856 1.47555 18.5827 2 18.588H6.232L8.032 4.41599C8.3 2.27199 10.3 0.751994 12.49 1.01599C14.31 1.23599 15.742 2.63599 15.968 4.41599L17.766 18.588H21.714L24 33.08L26.284 18.59H38C39.104 18.59 40 19.466 40 20.546C40 21.626 39.104 22.5 38 22.5H29.716L27.954 33.674C27.8162 34.5034 27.4178 35.2673 26.8165 35.8549C26.2152 36.4425 25.4423 36.8233 24.61 36.942C22.426 37.272 20.384 35.808 20.046 33.674L18.286 22.5H14.23L14.232 22.498Z" fill="#C1C7CD"/>
</svg>
