<svg width="40" height="40" viewBox="0 0 40 40" fill="none" xmlns="http://www.w3.org/2000/svg">
<path d="M28 34H12V37C12 37.7957 11.6839 38.5587 11.1213 39.1213C10.5587 39.6839 9.79565 40 9 40H7C6.20435 40 5.44129 39.6839 4.87868 39.1213C4.31607 38.5587 4 37.7957 4 37V33.66C2.82985 33.246 1.81684 32.4794 1.10048 31.4657C0.384118 30.4521 -0.000357856 29.2412 2.49931e-07 28V22C2.49931e-07 20.76 0.376 19.608 1.02 18.652L3.192 5.052C3.41755 3.64237 4.13832 2.35935 5.22484 1.43339C6.31137 0.507424 7.69244 -0.000799722 9.12 9.44597e-07H30.88C32.3065 0.0011789 33.6859 0.510546 34.7708 1.43674C35.8557 2.36294 36.5751 3.64536 36.8 5.054L38.966 18.634C39.618 19.594 39.998 20.754 39.998 22V28C39.9984 29.2412 39.6139 30.4521 38.8975 31.4657C38.1812 32.4794 37.1682 33.246 35.998 33.66V37C35.998 37.7957 35.6819 38.5587 35.1193 39.1213C34.5567 39.6839 33.7937 40 32.998 40H30.998C30.2024 40 29.4393 39.6839 28.8767 39.1213C28.3141 38.5587 27.998 37.7957 27.998 37V34H28ZM6 30H34C34.5304 30 35.0391 29.7893 35.4142 29.4142C35.7893 29.0391 36 28.5304 36 28V22C36 21.4696 35.7893 20.9609 35.4142 20.5858C35.0391 20.2107 34.5304 20 34 20H6C5.46957 20 4.96086 20.2107 4.58579 20.5858C4.21071 20.9609 4 21.4696 4 22V28C4 28.5304 4.21071 29.0391 4.58579 29.4142C4.96086 29.7893 5.46957 30 6 30ZM34.5 16.02L32.852 5.684C32.7769 5.2148 32.5373 4.78766 32.1759 4.47909C31.8146 4.17052 31.3552 4.00068 30.88 4H9.118C8.64215 3.99973 8.18179 4.16914 7.81962 4.4778C7.45744 4.78645 7.21719 5.21412 7.142 5.684L5.492 16.022C5.66095 16.0076 5.83043 16.0002 6 16H34C34.168 16 34.336 16.006 34.5 16.02ZM31 24C30.7348 24 30.4804 24.1054 30.2929 24.2929C30.1054 24.4804 30 24.7348 30 25C30 25.2652 30.1054 25.5196 30.2929 25.7071C30.4804 25.8946 30.7348 26 31 26C31.2652 26 31.5196 25.8946 31.7071 25.7071C31.8946 25.5196 32 25.2652 32 25C32 24.7348 31.8946 24.4804 31.7071 24.2929C31.5196 24.1054 31.2652 24 31 24ZM31 28C30.606 28 30.2159 27.9224 29.8519 27.7716C29.488 27.6209 29.1573 27.3999 28.8787 27.1213C28.6001 26.8427 28.3791 26.512 28.2284 26.1481C28.0776 25.7841 28 25.394 28 25C28 24.606 28.0776 24.2159 28.2284 23.8519C28.3791 23.488 28.6001 23.1573 28.8787 22.8787C29.1573 22.6001 29.488 22.3791 29.8519 22.2284C30.2159 22.0776 30.606 22 31 22C31.7956 22 32.5587 22.3161 33.1213 22.8787C33.6839 23.4413 34 24.2044 34 25C34 25.7956 33.6839 26.5587 33.1213 27.1213C32.5587 27.6839 31.7956 28 31 28ZM9 24C8.73478 24 8.48043 24.1054 8.29289 24.2929C8.10536 24.4804 8 24.7348 8 25C8 25.2652 8.10536 25.5196 8.29289 25.7071C8.48043 25.8946 8.73478 26 9 26C9.26522 26 9.51957 25.8946 9.70711 25.7071C9.89464 25.5196 10 25.2652 10 25C10 24.7348 9.89464 24.4804 9.70711 24.2929C9.51957 24.1054 9.26522 24 9 24ZM9 28C8.60603 28 8.21593 27.9224 7.85195 27.7716C7.48797 27.6209 7.15726 27.3999 6.87868 27.1213C6.6001 26.8427 6.37913 26.512 6.22836 26.1481C6.0776 25.7841 6 25.394 6 25C6 24.606 6.0776 24.2159 6.22836 23.8519C6.37913 23.488 6.6001 23.1573 6.87868 22.8787C7.15726 22.6001 7.48797 22.3791 7.85195 22.2284C8.21593 22.0776 8.60603 22 9 22C9.79565 22 10.5587 22.3161 11.1213 22.8787C11.6839 23.4413 12 24.2044 12 25C12 25.7956 11.6839 26.5587 11.1213 27.1213C10.5587 27.6839 9.79565 28 9 28ZM10.408 6.188C10.9384 6.188 11.4471 6.39871 11.8222 6.77379C12.1973 7.14886 12.408 7.65757 12.408 8.188V12.188C12.408 12.7184 12.1973 13.2271 11.8222 13.6022C11.4471 13.9773 10.9384 14.188 10.408 14.188C9.87757 14.188 9.36886 13.9773 8.99379 13.6022C8.61871 13.2271 8.408 12.7184 8.408 12.188V8.188C8.408 7.65757 8.61871 7.14886 8.99379 6.77379C9.36886 6.39871 9.87757 6.188 10.408 6.188Z" fill="#C1C7CD"/>
</svg>
