<svg width="22" height="32" viewBox="0 0 22 32" fill="none" xmlns="http://www.w3.org/2000/svg">
<path d="M10.2916 19.9817V28.1025C10.2916 28.4138 10.168 28.7124 9.94782 28.9324C9.72778 29.1526 9.42924 29.2762 9.11789 29.2762C8.80665 29.2762 8.5081 29.1526 8.28795 28.9324C8.0678 28.7124 7.94414 28.4138 7.94414 28.1025V19.993C8.27099 20.2317 8.66276 20.3649 9.06734 20.3749C9.50831 20.3874 9.9404 20.2487 10.2916 19.9817ZM20.2881 17.6343C19.9902 17.6343 19.7045 17.7526 19.4939 17.9632C19.2833 18.1738 19.1649 18.4596 19.1649 18.7575V20.1727C19.1649 20.484 19.2886 20.7826 19.5087 21.0026C19.7288 21.2228 20.0273 21.3464 20.3387 21.3464C20.65 21.3464 20.9486 21.2228 21.1686 21.0026C21.3887 20.7826 21.5124 20.484 21.5124 20.1727V18.8136C21.5212 18.6526 21.4951 18.4915 21.436 18.3414C21.377 18.1914 21.2863 18.0557 21.1701 17.9438C21.0539 17.8319 20.915 17.7464 20.7629 17.6929C20.6107 17.6395 20.4487 17.6195 20.2881 17.6343ZM5.39447 23.0593C4.99031 23.0472 4.59906 22.9142 4.27127 22.6774V30.8206C4.27127 31.1335 4.39552 31.4335 4.6167 31.6546C4.83787 31.8758 5.13784 32 5.45063 32C5.76342 32 6.0634 31.8758 6.28457 31.6546C6.50575 31.4335 6.62999 31.1335 6.62999 30.8206V22.7336C6.26321 22.9707 5.83045 23.0848 5.39447 23.0593ZM16.6265 15.1969C16.4743 15.1893 16.3222 15.2127 16.1793 15.2658C16.0366 15.3188 15.9061 15.4003 15.7957 15.5053C15.6854 15.6105 15.5976 15.7368 15.5377 15.8769C15.4778 16.017 15.4469 16.1678 15.4471 16.3201V22.5763C15.4471 22.8892 15.5714 23.1892 15.7925 23.4103C16.0138 23.6315 16.3137 23.7557 16.6265 23.7557C16.9393 23.7557 17.2393 23.6315 17.4605 23.4103C17.6816 23.1892 17.8058 22.8892 17.8058 22.5763V16.3987C17.8148 16.2367 17.7885 16.0746 17.7288 15.9236C17.669 15.7727 17.5774 15.6364 17.4599 15.5243C17.3424 15.4122 17.2021 15.3269 17.0486 15.2743C16.895 15.2216 16.7318 15.2029 16.5703 15.2194L16.6265 15.1969ZM12.8975 17.6006C12.4743 17.5976 12.0626 17.4643 11.7181 17.2187V25.3843C11.7181 25.6972 11.8423 25.9972 12.0635 26.2183C12.2847 26.4395 12.5846 26.5637 12.8975 26.5637C13.2103 26.5637 13.5102 26.4395 13.7314 26.2183C13.9526 25.9972 14.0768 25.6972 14.0768 25.3843V17.2299C13.7205 17.4953 13.2855 17.6337 12.8413 17.623L12.8975 17.6006ZM2.84481 23.8568V1.04458C2.84185 0.766506 2.72931 0.500847 2.53162 0.305264C2.33394 0.109681 2.06708 -1.12311e-05 1.789 8.625e-10H1.54189C1.26381 -1.12311e-05 0.99695 0.109681 0.799266 0.305264C0.601583 0.500847 0.489038 0.766506 0.486084 1.04458V23.8568C0.486084 24.1368 0.597326 24.4054 0.795324 24.6034C0.993322 24.8014 1.26188 24.9126 1.54189 24.9126H1.789C2.06902 24.9126 2.33757 24.8014 2.53557 24.6034C2.73358 24.4054 2.84481 24.1368 2.84481 23.8568ZM5.51802 22.1945H5.27092C4.99091 22.1945 4.72235 22.0833 4.52435 21.8852C4.32635 21.6872 4.21511 21.4187 4.21511 21.1386V3.76272C4.21808 3.48466 4.33061 3.21898 4.52829 3.02341C4.72598 2.82783 4.99284 2.71814 5.27092 2.71815H5.51802C5.79611 2.71814 6.06297 2.82783 6.26065 3.02341C6.45833 3.21898 6.57088 3.48466 6.57383 3.76272V21.1611C6.57383 21.4411 6.46259 21.7097 6.26459 21.9077C6.0666 22.1057 5.79804 22.2169 5.51802 22.2169V22.1945ZM9.23582 19.5212H8.97748C8.7005 19.5212 8.43475 19.4112 8.23887 19.2153C8.04298 19.0194 7.93291 18.7538 7.93291 18.4767V6.45841C7.93145 6.32029 7.95739 6.18325 8.00917 6.05521C8.06095 5.92718 8.13767 5.8107 8.23482 5.71251C8.33198 5.61432 8.44767 5.53637 8.57515 5.48318C8.70264 5.42998 8.83933 5.40259 8.97748 5.4026H9.23582C9.51393 5.40556 9.77956 5.5181 9.97511 5.71578C10.1708 5.91346 10.2804 6.18032 10.2804 6.45841V18.4767C10.2804 18.7538 10.1703 19.0194 9.97444 19.2153C9.77855 19.4112 9.51291 19.5212 9.23582 19.5212ZM12.9536 16.7694H12.7177C12.4396 16.7694 12.1728 16.6598 11.9751 16.4641C11.7774 16.2686 11.6649 16.0029 11.6619 15.7248V9.25518C11.6527 9.11096 11.6732 8.9664 11.7221 8.83038C11.771 8.69448 11.8474 8.56991 11.9463 8.46467C12.0453 8.35931 12.1648 8.27552 12.2976 8.21824C12.4302 8.16107 12.5732 8.13164 12.7177 8.13198H12.9648C13.2449 8.13198 13.5134 8.24317 13.7114 8.44119C13.9095 8.63921 14.0207 8.90777 14.0207 9.18779V15.7024C14.0221 15.842 13.9959 15.9805 13.9435 16.1098C13.8912 16.2392 13.8137 16.357 13.7154 16.4562C13.6172 16.5554 13.5004 16.6342 13.3714 16.688C13.2426 16.7418 13.1045 16.7694 12.9648 16.7694H12.9536ZM16.6826 14.3545H16.4355C16.1555 14.3545 15.887 14.2433 15.6889 14.0453C15.4909 13.8473 15.3797 13.5787 15.3797 13.2987V11.6251C15.3827 11.347 15.4952 11.0814 15.6929 10.8858C15.8906 10.6902 16.1574 10.5806 16.4355 10.5806H16.6826C16.9607 10.5806 17.2276 10.6902 17.4253 10.8858C17.623 11.0814 17.7355 11.347 17.7385 11.6251V13.2987C17.7385 13.5768 17.6288 13.8437 17.4332 14.0414C17.2376 14.239 16.972 14.3516 16.6939 14.3545H16.6826Z" fill="#697077"/>
</svg>
