<svg width="40" height="32" viewBox="0 0 40 32" fill="none" xmlns="http://www.w3.org/2000/svg">
<path d="M30 12V28H26V12H14V28H10V12C8.4087 12 6.88258 12.6321 5.75736 13.7574C4.63214 14.8826 4 16.4087 4 18V22C4 23.5913 4.63214 25.1174 5.75736 26.2426C6.88258 27.3679 8.4087 28 10 28H30C31.5913 28 33.1174 27.3679 34.2426 26.2426C35.3679 25.1174 36 23.5913 36 22V18C36 16.4087 35.3679 14.8826 34.2426 13.7574C33.1174 12.6321 31.5913 12 30 12ZM14.34 8H25.66C25.244 6.83166 24.4767 5.82067 23.4634 5.10576C22.45 4.39085 21.2402 4.00706 20 4.00706C18.7598 4.00706 17.55 4.39085 16.5366 5.10576C15.5233 5.82067 14.756 6.83166 14.34 8ZM10.2 8C10.663 5.74272 11.891 3.71447 13.6765 2.25795C15.4621 0.801443 17.6957 0.00598145 20 0.00598145C22.3043 0.00598145 24.5379 0.801443 26.3235 2.25795C28.109 3.71447 29.337 5.74272 29.8 8H30C32.6522 8 35.1957 9.05357 37.0711 10.9289C38.9464 12.8043 40 15.3478 40 18V22C40 24.6522 38.9464 27.1957 37.0711 29.0711C35.1957 30.9464 32.6522 32 30 32H10C7.34784 32 4.8043 30.9464 2.92893 29.0711C1.05357 27.1957 0 24.6522 0 22L0 18C0 15.3478 1.05357 12.8043 2.92893 10.9289C4.8043 9.05357 7.34784 8 10 8H10.2Z" fill="#C1C7CD"/>
</svg>
